<svg xmlns="http://www.w3.org/2000/svg" id="Layer_3" data-name="Layer 3" viewBox="0 0 720 720" xmlns:xlink="http://www.w3.org/1999/xlink"><defs><clipPath id="clippath"><path d="M0 0h720v720H0z" style="fill:none"/></clipPath><style>.cls-2{fill:#7742ea}.cls-3{fill:#5f38c4}.cls-4{fill:#262168}.cls-7{fill:#2a226f}.cls-8{fill:#4a2fa2}.cls-11{fill:#472e9e}.cls-13{fill:#262169}.cls-14{fill:#5333b1}.cls-15{fill:#693cd3}.cls-17{fill:#7541e7}.cls-22{fill:#1c1d59}.cls-23{fill:#6e3edc}.cls-24{fill:#3c2a8c}.cls-26{fill:#8246fb}.cls-28{fill:#6f3fde}.cls-29{fill:#5132ad}.cls-31{fill:#1b1c57}.cls-35{fill:#6039c6}.cls-36{fill:#32267c}.cls-38{fill:#161a4f}.cls-40{fill:#5a36bc}.cls-42{fill:#3a2988}.cls-43{fill:#2d2474}.cls-44{fill:#4e31a9}.cls-47{fill:#7340e4}.cls-52{fill:#412c94}.cls-54{fill:#27216a}.cls-55{fill:#4b30a3}.cls-57{fill:#3f2b90}.cls-58{fill:#31257a}.cls-59{fill:#683cd2}.cls-62{fill:#482f9f}.cls-63{fill:#422c95}.cls-64{fill:#7641e9}.cls-65{fill:#5d37c1}.cls-67{fill:#28226c}.cls-68{fill:#7842ec}.cls-70{fill:#7441e6}.cls-71{fill:#5634b5}.cls-73{fill:#4c30a5}.cls-74{fill:#352780}.cls-77{fill:#4d31a7}.cls-81{fill:#6038c5}.cls-86{fill:#5f38c3}.cls-87{fill:#5534b4}.cls-90{fill:#2b2371}.cls-91{fill:#34267f}.cls-92{fill:#492fa0}.cls-96{fill:#1a1c55}.cls-97{fill:#633aca}.cls-100{fill:#7842eb}.cls-101{fill:#6d3eda}.cls-102{fill:#141a4c}.cls-103{fill:#703fdf}.cls-106{fill:#7d44f4}.cls-107{fill:#181b52}.cls-108{fill:#3d2a8d}.cls-109{fill:#7942ed}.cls-111{fill:#171b51}.cls-113{fill:#211f61}.cls-116{fill:#673bd1}.cls-117{fill:#33267d}.cls-118{fill:#5e37c2}.cls-119{fill:#1e1e5c}.cls-121{fill:#7e45f6}.cls-123{fill:#1e1d5b}.cls-126{fill:#7d44f3}.cls-127{fill:#8146fa}.cls-129{fill:#7e44f5}.cls-130{fill:#5935ba}.cls-131{fill:#7c44f2}.cls-133{fill:#29226d}.cls-139{fill:#7f45f7}.cls-145{fill:#1f1e5e}.cls-147{fill:#6239c8}.cls-148{fill:#6b3dd7}.cls-149{fill:#5032ac}.cls-151{fill:#7b43f1}.cls-152{fill:#201e5f}.cls-154{fill:#1a1c56}.cls-155{fill:#6139c7}.cls-156{fill:#3b298a}.cls-157{fill:#33267e}.cls-159{fill:#8045f8}.cls-161{fill:#442d98}.cls-162{fill:#472e9d}.cls-163{fill:#5835b9}.cls-166{fill:#2b2370}.cls-167{fill:#462e9c}.cls-172{fill:#232064}.cls-173{fill:#302578}.cls-174{fill:#6c3dd9}.cls-175{fill:#713fe1}.cls-177{fill:#28216b}.cls-178{fill:#693cd4}.cls-179{fill:#643acb}.cls-182{fill:#7440e5}.cls-185{fill:#452d9a}.cls-193{fill:#242065}.cls-194{fill:#5735b7}.cls-196{fill:#663bcf}.cls-198{fill:#5835b8}.cls-199{fill:#2e2476}.cls-202{fill:#6e3edb}.cls-207{fill:#32257b}.cls-208{fill:#5132ae}.cls-209{fill:#402b92}.cls-211{fill:#8246fc}.cls-213{fill:#362782}.cls-214{fill:#3c2a8b}.cls-217{fill:#2e2475}.cls-218{fill:#3f2b91}.cls-219{fill:#7240e2}.cls-220{fill:#8045f9}.cls-221{fill:#171b50}.cls-222{fill:#5032ab}.cls-223{fill:#302579}.cls-226{fill:#4b30a4}.cls-228{fill:#5634b6}.cls-229{fill:#1f1e5d}.cls-233{fill:#492fa1}.cls-234{fill:#643acc}.cls-237{fill:#7943ee}.cls-239{fill:#2d2373}.cls-241{fill:#5333b0}.cls-243{fill:#412c93}.cls-244{fill:#5a36bb}.cls-246{fill:#29226e}.cls-250{fill:#7641e8}.cls-255{fill:#4e31a8}.cls-259{fill:#653bce}.cls-260{fill:#352781}.cls-261{fill:#653acd}.cls-267{fill:#713fe0}.cls-268{fill:#4c30a6}.cls-270{fill:#422c96}.cls-271{fill:#5d37c0}.cls-272{fill:#2f2477}.cls-274{fill:#7340e3}.cls-275{fill:#242066}.cls-278{fill:#6f3edd}.cls-282{fill:#3d2a8e}.cls-285{fill:#8447ff}.cls-286{fill:#191b53}.cls-288{fill:#5433b2}.cls-290{fill:#6c3dd8}.cls-292{fill:#382886}.cls-293{fill:#7a43ef}.cls-299{fill:#7b43f0}.cls-302{fill:#151a4d}.cls-304{fill:#1d1d5a}.cls-306{fill:#252067}.cls-307{fill:#221f62}.cls-311{fill:#2c2372}.cls-312{fill:#432d97}.cls-315{fill:#6a3cd5}.cls-317{fill:#5534b3}.cls-318{fill:#372783}.cls-320{fill:#673bd0}.cls-324{fill:#8347fe}.cls-327{fill:#14194b}.cls-328{fill:#382885}.cls-329{fill:#442d99}.cls-330{fill:#13194a}.cls-333{fill:#462e9b}.cls-334{fill:#5233af}.cls-335{fill:#392987}.cls-336{fill:#3e2b8f}.cls-337{fill:#6a3dd6}.cls-338{fill:#5b36be}.cls-339{fill:#3a2989}.cls-340{fill:#5b36bd}.cls-346{fill:#372884}.cls-348{fill:#5c37bf}.cls-349{fill:#151a4e}.cls-350{fill:#1c1d58}.cls-351{fill:#211f60}.cls-353{fill:#8346fd}.cls-354{fill:#231f63}.cls-356{fill:#4f31aa}.cls-357{fill:#6239c9}.cls-362{fill:#191c54}</style></defs><g style="clip-path:url(#clippath)"><circle cx="510.4" cy="724.7" r="273.1" style="fill:#a277ff"/><circle cx="502.9" cy="730" r="273.1" style="fill:#a176fe"/><circle cx="495.2" cy="735.1" r="273.1" style="fill:#a076fd"/><circle cx="487.5" cy="740" r="273.1" style="fill:#a075fc"/><circle cx="479.6" cy="744.8" r="273.1" style="fill:#9f75fb"/><circle cx="471.6" cy="749.4" r="273.1" style="fill:#9e74fa"/><circle cx="463.5" cy="753.7" r="273.1" style="fill:#9d74f9"/><circle cx="455.3" cy="757.9" r="273.1" style="fill:#9c73f8"/><circle cx="447" cy="761.9" r="273.1" style="fill:#9c73f7"/><circle cx="438.6" cy="765.7" r="273.1" style="fill:#9b72f6"/><circle cx="430.2" cy="769.4" r="273.1" style="fill:#9a72f5"/><circle cx="421.6" cy="772.8" r="273.1" style="fill:#9971f4"/><circle cx="413" cy="776" r="273.1" style="fill:#9971f3"/><circle cx="404.4" cy="779.1" r="273.1" style="fill:#9870f2"/><circle cx="395.6" cy="782" r="273.1" style="fill:#9770f1"/><circle cx="386.8" cy="784.6" r="273.1" style="fill:#966ff0"/><circle cx="377.9" cy="787.1" r="273.1" style="fill:#956fef"/><circle cx="369" cy="789.4" r="273.1" style="fill:#956eee"/><circle cx="360" cy="791.5" r="273.1" style="fill:#946eed"/><circle cx="351" cy="793.4" r="273.1" style="fill:#936dec"/><circle cx="341.9" cy="795.1" r="273.1" style="fill:#926deb"/><circle cx="332.9" cy="796.6" r="273.1" style="fill:#916cea"/><circle cx="323.7" cy="797.9" r="273.1" style="fill:#916ce9"/><circle cx="314.6" cy="799" r="273.1" style="fill:#906be8"/><circle cx="305.4" cy="799.9" r="273.1" style="fill:#8f6be7"/><circle cx="296.2" cy="800.5" r="273.1" style="fill:#8e6ae6"/><circle cx="287.1" cy="801" r="273.1" style="fill:#8d69e5"/><circle cx="277.8" cy="801.3" r="273.1" style="fill:#8d69e4"/><circle cx="268.6" cy="801.4" r="273.1" style="fill:#8c68e3"/><circle cx="259.4" cy="801.3" r="273.1" style="fill:#8b68e2"/><circle cx="250.2" cy="801" r="273.1" style="fill:#8a67e1"/><circle cx="241" cy="800.5" r="273.1" style="fill:#8a67e0"/><circle cx="231.9" cy="799.8" r="273.1" style="fill:#8966df"/><circle cx="222.7" cy="798.8" r="273.1" style="fill:#8866de"/><circle cx="213.6" cy="797.7" r="273.1" style="fill:#8765dd"/><circle cx="204.5" cy="796.3" r="273.1" style="fill:#8665dc"/><circle cx="195.4" cy="794.8" r="273.1" style="fill:#8664db"/><circle cx="186.4" cy="793" r="273.1" style="fill:#8564da"/><circle cx="177.4" cy="791" r="273.1" style="fill:#8463d9"/><circle cx="168.4" cy="788.8" r="273.1" style="fill:#8363d8"/><circle cx="159.6" cy="786.4" r="273.1" style="fill:#8262d7"/><circle cx="150.7" cy="783.8" r="273.1" style="fill:#8262d6"/><circle cx="141.9" cy="781" r="273.1" style="fill:#8161d5"/><circle cx="133.3" cy="778" r="273.1" style="fill:#8061d4"/><circle cx="124.6" cy="774.7" r="273.1" style="fill:#7f60d3"/><circle cx="116.1" cy="771.3" r="273.1" style="fill:#7e60d2"/><circle cx="107.6" cy="767.7" r="273.1" style="fill:#7e5fd1"/><circle cx="99.3" cy="763.9" r="273.1" style="fill:#7d5fd0"/><circle cx="91" cy="759.8" r="273.1" style="fill:#7c5ecf"/><circle cx="82.8" cy="755.6" r="273.1" style="fill:#7b5ece"/><circle cx="74.7" cy="751.2" r="273.1" style="fill:#7a5dcd"/><circle cx="66.7" cy="746.7" r="273.1" style="fill:#7a5dcc"/><circle cx="58.9" cy="741.9" r="273.1" style="fill:#795ccb"/><circle cx="51.1" cy="737" r="273.1" style="fill:#785bca"/><circle cx="43.4" cy="731.9" r="273.1" style="fill:#775bc9"/><circle cx="35.9" cy="726.6" r="273.1" style="fill:#775ac8"/><circle cx="28.4" cy="721.2" r="273.1" style="fill:#765ac7"/><circle cx="21.1" cy="715.6" r="273.1" style="fill:#7559c6"/><circle cx="13.9" cy="709.8" r="273.1" style="fill:#7459c5"/><circle cx="6.9" cy="703.9" r="273.1" style="fill:#7358c4"/><circle cx="-.1" cy="697.8" r="273.1" style="fill:#7358c3"/><circle cx="-6.9" cy="691.6" r="273.1" style="fill:#7257c2"/><circle cx="-13.5" cy="685.3" r="273.1" style="fill:#7157c1"/><circle cx="-20.1" cy="678.8" r="273.1" style="fill:#7056c0"/><circle cx="-26.4" cy="672.1" r="273.1" style="fill:#6f56bf"/><circle cx="-32.7" cy="665.3" r="273.1" style="fill:#6f55be"/><circle cx="-38.7" cy="658.4" r="273.1" style="fill:#6e55bd"/><circle cx="-44.7" cy="651.4" r="273.1" style="fill:#6d54bc"/><circle cx="-50.4" cy="644.2" r="273.1" style="fill:#6c54bb"/><circle cx="-56" cy="636.9" r="273.1" style="fill:#6b53ba"/><circle cx="-61.5" cy="629.5" r="273.1" style="fill:#6b53b9"/><circle cx="-66.8" cy="621.9" r="273.1" style="fill:#6a52b8"/><circle cx="-71.9" cy="614.3" r="273.1" style="fill:#6952b7"/><circle cx="-76.8" cy="606.5" r="273.1" style="fill:#6851b6"/><circle cx="-81.6" cy="598.6" r="273.1" style="fill:#6851b5"/><circle cx="-86.2" cy="590.7" r="273.1" style="fill:#6750b4"/><circle cx="-90.6" cy="582.6" r="273.1" style="fill:#6650b3"/><circle cx="-94.8" cy="574.4" r="273.1" style="fill:#654fb2"/><circle cx="-98.8" cy="566.1" r="273.1" style="fill:#644eb1"/><circle cx="-102.7" cy="557.8" r="273.1" style="fill:#644eb0"/><circle cx="-106.3" cy="549.3" r="273.1" style="fill:#634daf"/><circle cx="-109.7" cy="540.8" r="273.1" style="fill:#624dae"/><circle cx="-113" cy="532.1" r="273.1" style="fill:#614cad"/><circle cx="-116" cy="523.4" r="273.1" style="fill:#604cac"/><circle cx="-118.8" cy="514.7" r="273.1" style="fill:#604bab"/><circle cx="-121.4" cy="505.9" r="273.1" style="fill:#5f4baa"/><circle cx="-123.9" cy="497.1" r="273.1" style="fill:#5e4aa9"/><circle cx="-126.1" cy="488.2" r="273.1" style="fill:#5d4aa8"/><circle cx="-128.2" cy="479.3" r="273.1" style="fill:#5c49a7"/><circle cx="-130.1" cy="470.4" r="273.1" style="fill:#5c49a6"/><circle cx="-131.9" cy="461.4" r="273.1" style="fill:#5b48a5"/><circle cx="-133.5" cy="452.4" r="273.1" style="fill:#5a48a4"/><circle cx="-134.9" cy="443.3" r="273.1" style="fill:#5947a3"/><circle cx="-136.2" cy="434.2" r="273.1" style="fill:#5947a2"/><circle cx="-137.3" cy="425.1" r="273.1" style="fill:#5846a1"/><circle cx="-138.3" cy="416" r="273.1" style="fill:#5746a0"/><circle cx="-139.1" cy="406.9" r="273.1" style="fill:#56459f"/><circle cx="-139.8" cy="397.7" r="273.1" style="fill:#55459e"/><circle cx="-140.4" cy="388.5" r="273.1" style="fill:#55449d"/><circle cx="-140.9" cy="379.3" r="273.1" style="fill:#54449c"/><circle cx="-141.3" cy="370.1" r="273.1" style="fill:#53439b"/><circle cx="-141.5" cy="360.9" r="273.1" style="fill:#52439a"/><circle cx="-141.7" cy="351.6" r="273.1" style="fill:#514299"/><circle cx="-141.7" cy="342.4" r="273.1" style="fill:#514298"/><circle cx="-141.6" cy="333.1" r="273.1" style="fill:#504197"/><circle cx="-141.5" cy="323.9" r="273.1" style="fill:#4f4096"/><circle cx="-141.3" cy="314.6" r="273.1" style="fill:#4e4095"/><circle cx="-140.9" cy="305.4" r="273.1" style="fill:#4d3f94"/><circle cx="-140.6" cy="296.1" r="273.1" style="fill:#4d3f93"/><circle cx="-140.1" cy="286.9" r="273.1" style="fill:#4c3e92"/><circle cx="-139.6" cy="277.6" r="273.1" style="fill:#4b3e91"/><circle cx="-139" cy="268.4" r="273.1" style="fill:#4a3d90"/><circle cx="-138.4" cy="259.2" r="273.1" style="fill:#4a3d8f"/><circle cx="-137.7" cy="250" r="273.1" style="fill:#493c8e"/><circle cx="-136.9" cy="240.8" r="273.1" style="fill:#483c8d"/><circle cx="-136.2" cy="231.6" r="273.1" style="fill:#473b8c"/><circle cx="-135.3" cy="222.4" r="273.1" style="fill:#463b8b"/><circle cx="-134.4" cy="213.2" r="273.1" style="fill:#463a8a"/><circle cx="-133.4" cy="204" r="273.1" style="fill:#453a89"/><circle cx="-132.2" cy="194.8" r="273.1" style="fill:#443988"/><circle cx="-130.9" cy="185.6" r="273.1" style="fill:#433987"/><circle cx="-129.5" cy="176.4" r="273.1" style="fill:#423886"/><circle cx="-127.8" cy="167.4" r="273.1" style="fill:#423885"/><circle cx="-125.9" cy="158.3" r="273.1" style="fill:#413784"/><circle cx="-123.8" cy="149.4" r="273.1" style="fill:#403783"/><circle cx="-121.5" cy="140.5" r="273.1" style="fill:#3f3682"/><circle cx="-118.8" cy="131.8" r="273.1" style="fill:#3e3681"/><circle cx="-115.9" cy="123.1" r="273.1" style="fill:#3e3580"/><circle cx="-112.6" cy="114.6" r="273.1" style="fill:#3d357f"/><circle cx="-109" cy="106.2" r="273.1" style="fill:#3c347e"/><circle cx="-105" cy="98" r="273.1" style="fill:#3b337d"/><circle cx="-100.6" cy="89.9" r="273.1" style="fill:#3b337c"/><circle cx="-95.9" cy="82" r="273.1" style="fill:#3a327b"/><circle cx="-90.8" cy="74.5" r="273.1" style="fill:#39327a"/><circle cx="-85.5" cy="67.2" r="273.1" style="fill:#383179"/><circle cx="-79.8" cy="60.1" r="273.1" style="fill:#373178"/><circle cx="-73.8" cy="53.3" r="273.1" style="fill:#373077"/><circle cx="-67.6" cy="46.8" r="273.1" style="fill:#363076"/><circle cx="-61.2" cy="40.5" r="273.1" style="fill:#352f75"/><circle cx="-54.5" cy="34.4" r="273.1" style="fill:#342f74"/><circle cx="-47.5" cy="28.5" r="273.1" style="fill:#332e73"/><circle cx="-40.4" cy="22.9" r="273.1" style="fill:#332e72"/><circle cx="-33.1" cy="17.4" r="273.1" style="fill:#322d71"/><circle cx="-25.6" cy="12.2" r="273.1" style="fill:#312d70"/><circle cx="-17.9" cy="7.1" r="273.1" style="fill:#302c6f"/><circle cx="-10.1" cy="2.2" r="273.1" style="fill:#2f2c6e"/><circle cx="-2.1" cy="-2.5" r="273.1" style="fill:#2f2b6d"/><circle cx="6" cy="-7.1" r="273.1" style="fill:#2e2b6c"/><circle cx="14.2" cy="-11.5" r="273.1" style="fill:#2d2a6b"/><circle cx="22.5" cy="-15.8" r="273.1" style="fill:#2c2a6a"/><circle cx="30.9" cy="-20" r="273.1" style="fill:#2b2969"/><circle cx="39.4" cy="-24" r="273.1" style="fill:#2b2968"/><circle cx="47.9" cy="-28" r="273.1" style="fill:#2a2867"/><circle cx="56.4" cy="-31.8" r="273.1" style="fill:#292866"/><circle cx="65" cy="-35.5" r="273.1" style="fill:#282765"/><circle cx="73.6" cy="-39.2" r="273.1" style="fill:#282764"/><circle cx="82.2" cy="-42.8" r="273.1" style="fill:#272663"/><circle cx="90.7" cy="-46.3" r="273.1" style="fill:#262562"/><circle cx="99.3" cy="-49.7" r="273.1" style="fill:#252561"/><circle cx="107.8" cy="-53.1" r="273.1" style="fill:#242460"/><circle cx="116.4" cy="-56.6" r="273.1" style="fill:#24245f"/><circle cx="125" cy="-60" r="273.1" style="fill:#23235e"/><circle cx="133.6" cy="-63.3" r="273.1" style="fill:#22235d"/><circle cx="142.2" cy="-66.6" r="273.1" style="fill:#21225c"/><circle cx="150.8" cy="-69.9" r="273.1" style="fill:#20225b"/><circle cx="159.5" cy="-73.2" r="273.1" style="fill:#20215a"/><circle cx="168.2" cy="-76.4" r="273.1" style="fill:#1f2159"/><circle cx="176.9" cy="-79.6" r="273.1" style="fill:#1e2058"/><circle cx="185.6" cy="-82.7" r="273.1" style="fill:#1d2057"/><circle cx="194.3" cy="-85.8" r="273.1" style="fill:#1c1f56"/><circle cx="203.1" cy="-88.8" r="273.1" style="fill:#1c1f55"/><circle cx="211.8" cy="-91.8" r="273.1" style="fill:#1b1e54"/><circle cx="220.6" cy="-94.7" r="273.1" style="fill:#1a1e53"/><circle cx="229.4" cy="-97.6" r="273.1" style="fill:#191d52"/><circle cx="238.2" cy="-100.4" r="273.1" style="fill:#191d51"/><circle cx="247" cy="-103.1" r="273.1" style="fill:#181c50"/><circle cx="255.8" cy="-105.7" r="273.1" style="fill:#171c4f"/><circle cx="264.7" cy="-108.3" r="273.1" style="fill:#161b4e"/><circle cx="273.6" cy="-110.8" r="273.1" style="fill:#151b4d"/><circle cx="282.5" cy="-113.2" r="273.1" style="fill:#151a4c"/><circle cx="291.4" cy="-115.5" r="273.1" style="fill:#141a4b"/><circle cx="299.6" cy="-117.6" r="273.1" class="cls-330"/><circle cx="309" cy="-119.8" r="273.1" class="cls-327"/><circle cx="317.7" cy="-121.8" r="273.1" class="cls-102"/><circle cx="326.4" cy="-123.8" r="273.1" class="cls-302"/><circle cx="335.2" cy="-125.6" r="273.1" class="cls-349"/><circle cx="344" cy="-127.3" r="273.1" class="cls-38"/><circle cx="352.8" cy="-128.9" r="273.1" class="cls-221"/><circle cx="361.6" cy="-130.4" r="273.1" class="cls-111"/><circle cx="370.4" cy="-131.8" r="273.1" class="cls-107"/><circle cx="379.2" cy="-133.1" r="273.1" class="cls-286"/><circle cx="388" cy="-134.3" r="273.1" class="cls-362"/><circle cx="396.9" cy="-135.4" r="273.1" class="cls-96"/><circle cx="405.8" cy="-136.3" r="273.1" class="cls-154"/><circle cx="414.6" cy="-137.1" r="273.1" class="cls-31"/><circle cx="423.5" cy="-137.8" r="273.1" class="cls-350"/><circle cx="432.4" cy="-138.4" r="273.1" class="cls-22"/><circle cx="441.4" cy="-138.8" r="273.1" class="cls-304"/><circle cx="450.3" cy="-139.1" r="273.1" class="cls-123"/><circle cx="459.3" cy="-139.3" r="273.1" class="cls-119"/><circle cx="468.2" cy="-139.3" r="273.1" class="cls-229"/><circle cx="477.2" cy="-139.2" r="273.1" class="cls-145"/><circle cx="486.2" cy="-138.9" r="273.1" class="cls-152"/><circle cx="495.3" cy="-138.4" r="273.1" class="cls-351"/><circle cx="504.3" cy="-137.8" r="273.1" class="cls-113"/><circle cx="513.3" cy="-137" r="273.1" class="cls-307"/><circle cx="522.3" cy="-136.1" r="273.1" class="cls-354"/><circle cx="531.3" cy="-134.9" r="273.1" class="cls-172"/><circle cx="540.3" cy="-133.6" r="273.1" class="cls-193"/><circle cx="549.3" cy="-132.1" r="273.1" class="cls-275"/><circle cx="558.2" cy="-130.5" r="273.1" class="cls-306"/><circle cx="567.1" cy="-128.7" r="273.1" class="cls-4"/><circle cx="575.9" cy="-126.7" r="273.1" class="cls-13"/><circle cx="584.8" cy="-124.6" r="273.1" class="cls-54"/><circle cx="593.5" cy="-122.3" r="273.1" class="cls-177"/><circle cx="602.2" cy="-119.8" r="273.1" class="cls-67"/><circle cx="610.9" cy="-117.1" r="273.1" class="cls-133"/><circle cx="619.4" cy="-114.3" r="273.1" class="cls-246"/><circle cx="628" cy="-111.3" r="273.1" class="cls-7"/><circle cx="636.4" cy="-108.1" r="273.1" class="cls-166"/><circle cx="644.7" cy="-104.7" r="273.1" class="cls-90"/><circle cx="653" cy="-101.2" r="273.1" class="cls-311"/><circle cx="661.2" cy="-97.5" r="273.1" class="cls-239"/><circle cx="669.3" cy="-93.6" r="273.1" class="cls-43"/><circle cx="677.2" cy="-89.6" r="273.1" class="cls-217"/><circle cx="685.1" cy="-85.4" r="273.1" class="cls-199"/><circle cx="692.8" cy="-81" r="273.1" class="cls-272"/><circle cx="700.5" cy="-76.4" r="273.1" class="cls-173"/><circle cx="708" cy="-71.6" r="273.1" class="cls-223"/><circle cx="715.4" cy="-66.7" r="273.1" class="cls-58"/><circle cx="722.6" cy="-61.6" r="273.1" class="cls-207"/><circle cx="729.7" cy="-56.3" r="273.1" class="cls-36"/><circle cx="736.7" cy="-50.8" r="273.1" class="cls-117"/><circle cx="743.5" cy="-45.2" r="273.1" class="cls-157"/><circle cx="750.1" cy="-39.4" r="273.1" class="cls-91"/><circle cx="756.6" cy="-33.4" r="273.1" class="cls-74"/><circle cx="763" cy="-27.2" r="273.1" class="cls-260"/><circle cx="769.1" cy="-20.8" r="273.1" class="cls-213"/><circle cx="775.1" cy="-14.3" r="273.1" class="cls-318"/><circle cx="780.9" cy="-7.5" r="273.1" class="cls-346"/><circle cx="786.5" cy="-.6" r="273.1" class="cls-328"/><circle cx="791.9" cy="6.5" r="273.1" class="cls-292"/><circle cx="797.2" cy="13.7" r="273.1" class="cls-335"/><circle cx="802.2" cy="21.2" r="273.1" class="cls-42"/><circle cx="806.9" cy="28.7" r="273.1" class="cls-339"/><circle cx="811.5" cy="36.4" r="273.1" class="cls-156"/><circle cx="815.8" cy="44.1" r="273.1" class="cls-214"/><circle cx="819.9" cy="52" r="273.1" class="cls-24"/><circle cx="823.8" cy="60" r="273.1" class="cls-108"/><circle cx="827.5" cy="68.1" r="273.1" class="cls-282"/><circle cx="831" cy="76.2" r="273.1" class="cls-336"/><circle cx="834.3" cy="84.5" r="273.1" class="cls-57"/><circle cx="837.4" cy="92.8" r="273.1" class="cls-218"/><circle cx="840.3" cy="101.2" r="273.1" class="cls-209"/><circle cx="843" cy="109.7" r="273.1" class="cls-243"/><circle cx="845.6" cy="118.2" r="273.1" class="cls-52"/><circle cx="848" cy="126.8" r="273.1" class="cls-63"/><circle cx="850.2" cy="135.5" r="273.1" class="cls-270"/><circle cx="852.3" cy="144.2" r="273.1" class="cls-312"/><circle cx="854.2" cy="153" r="273.1" class="cls-161"/><circle cx="856" cy="161.8" r="273.1" class="cls-329"/><circle cx="857.6" cy="170.7" r="273.1" class="cls-185"/><circle cx="859.1" cy="179.6" r="273.1" class="cls-333"/><circle cx="860.5" cy="188.5" r="273.1" class="cls-167"/><circle cx="861.7" cy="197.4" r="273.1" class="cls-162"/><circle cx="862.8" cy="206.4" r="273.1" class="cls-11"/><circle cx="863.8" cy="215.4" r="273.1" class="cls-62"/><circle cx="864.7" cy="224.4" r="273.1" class="cls-92"/><circle cx="865.5" cy="233.4" r="273.1" class="cls-233"/><circle cx="866.2" cy="242.5" r="273.1" class="cls-8"/><circle cx="866.8" cy="251.5" r="273.1" class="cls-55"/><circle cx="867.4" cy="260.5" r="273.1" class="cls-226"/><circle cx="867.8" cy="269.6" r="273.1" class="cls-73"/><circle cx="868.2" cy="278.6" r="273.1" class="cls-268"/><circle cx="868.5" cy="287.5" r="273.1" class="cls-77"/><circle cx="868.7" cy="296.5" r="273.1" class="cls-255"/><circle cx="868.9" cy="305.5" r="273.1" class="cls-44"/><circle cx="868.9" cy="314.5" r="273.1" class="cls-356"/><circle cx="869" cy="323.5" r="273.1" class="cls-222"/><circle cx="868.9" cy="332.6" r="273.1" class="cls-149"/><circle cx="868.7" cy="341.6" r="273.1" class="cls-29"/><circle cx="868.5" cy="350.6" r="273.1" class="cls-208"/><circle cx="868.1" cy="359.6" r="273.1" class="cls-334"/><circle cx="867.6" cy="368.7" r="273.1" class="cls-241"/><circle cx="867" cy="377.7" r="273.1" class="cls-14"/><circle cx="866.3" cy="386.7" r="273.1" class="cls-288"/><circle cx="865.5" cy="395.6" r="273.1" class="cls-317"/><circle cx="864.5" cy="404.6" r="273.1" class="cls-87"/><circle cx="863.3" cy="413.5" r="273.1" class="cls-71"/><circle cx="862" cy="422.4" r="273.1" class="cls-228"/><circle cx="860.5" cy="431.2" r="273.1" class="cls-194"/><circle cx="858.9" cy="440" r="273.1" class="cls-198"/><circle cx="857.1" cy="448.7" r="273.1" class="cls-163"/><circle cx="855" cy="457.4" r="273.1" class="cls-130"/><circle cx="852.8" cy="466.1" r="273.1" class="cls-244"/><circle cx="850.4" cy="474.6" r="273.1" class="cls-40"/><circle cx="847.8" cy="483.1" r="273.1" class="cls-340"/><circle cx="845" cy="491.6" r="273.1" class="cls-338"/><circle cx="841.9" cy="499.9" r="273.1" class="cls-348"/><circle cx="838.6" cy="508.2" r="273.1" class="cls-271"/><circle cx="835.1" cy="516.4" r="273.1" class="cls-65"/><circle cx="831.3" cy="524.5" r="273.1" class="cls-118"/><circle cx="827.3" cy="532.5" r="273.1" class="cls-86"/><circle cx="823" cy="540.4" r="273.1" class="cls-3"/><circle cx="818.5" cy="548.1" r="273.1" class="cls-81"/><circle cx="813.8" cy="555.6" r="273.1" class="cls-35"/><circle cx="808.9" cy="563.1" r="273.1" class="cls-155"/><circle cx="803.7" cy="570.3" r="273.1" class="cls-147"/><circle cx="798.4" cy="577.5" r="273.1" class="cls-357"/><circle cx="792.8" cy="584.4" r="273.1" class="cls-97"/><circle cx="787.1" cy="591.2" r="273.1" class="cls-179"/><circle cx="781.1" cy="597.9" r="273.1" class="cls-234"/><circle cx="775" cy="604.4" r="273.1" class="cls-261"/><circle cx="768.7" cy="610.7" r="273.1" class="cls-259"/><circle cx="762.3" cy="616.9" r="273.1" class="cls-196"/><circle cx="755.6" cy="622.9" r="273.1" class="cls-320"/><circle cx="748.9" cy="628.8" r="273.1" class="cls-116"/><circle cx="742" cy="634.5" r="273.1" class="cls-59"/><circle cx="734.9" cy="640" r="273.1" class="cls-15"/><circle cx="727.7" cy="645.4" r="273.1" class="cls-178"/><circle cx="720.4" cy="650.6" r="273.1" class="cls-315"/><circle cx="712.9" cy="655.7" r="273.1" class="cls-337"/><circle cx="705.3" cy="660.6" r="273.1" class="cls-148"/><circle cx="697.7" cy="665.3" r="273.1" class="cls-290"/><circle cx="689.9" cy="669.9" r="273.1" class="cls-174"/><circle cx="682" cy="674.3" r="273.1" class="cls-101"/><circle cx="674" cy="678.5" r="273.1" class="cls-202"/><circle cx="666" cy="682.6" r="273.1" class="cls-23"/><circle cx="657.8" cy="686.5" r="273.1" class="cls-278"/><circle cx="649.6" cy="690.2" r="273.1" class="cls-28"/><circle cx="641.4" cy="693.7" r="273.1" class="cls-103"/><circle cx="633" cy="697.1" r="273.1" class="cls-267"/><circle cx="624.6" cy="700.3" r="273.1" class="cls-175"/><circle cx="616.2" cy="703.4" r="273.1" class="cls-219"/><circle cx="607.7" cy="706.3" r="273.1" class="cls-274"/><circle cx="599.2" cy="709" r="273.1" class="cls-47"/><circle cx="590.6" cy="711.6" r="273.1" class="cls-182"/><circle cx="582.1" cy="714" r="273.1" class="cls-70"/><circle cx="573.4" cy="716.3" r="273.1" class="cls-17"/><circle cx="564.8" cy="718.5" r="273.1" class="cls-250"/><circle cx="556" cy="720.5" r="273.1" class="cls-64"/><circle cx="547.3" cy="722.4" r="273.1" class="cls-2"/><circle cx="538.5" cy="724.2" r="273.1" class="cls-100"/><circle cx="529.7" cy="725.9" r="273.1" class="cls-68"/><circle cx="520.9" cy="727.4" r="273.1" class="cls-109"/><circle cx="512.1" cy="728.8" r="273.1" class="cls-237"/><circle cx="503.2" cy="730.1" r="273.1" class="cls-293"/><circle cx="494.3" cy="731.3" r="273.1" class="cls-299"/><circle cx="485.4" cy="732.4" r="273.1" class="cls-151"/><circle cx="476.5" cy="733.4" r="273.1" class="cls-131"/><circle cx="467.6" cy="734.3" r="273.1" class="cls-126"/><circle cx="458.6" cy="735" r="273.1" class="cls-106"/><circle cx="449.6" cy="735.8" r="273.1" class="cls-129"/><circle cx="440.7" cy="736.4" r="273.1" class="cls-121"/><circle cx="431.7" cy="736.9" r="273.1" class="cls-139"/><circle cx="422.7" cy="737.3" r="273.1" class="cls-159"/><circle cx="413.7" cy="737.6" r="273.1" class="cls-220"/><circle cx="404.7" cy="737.9" r="273.1" class="cls-127"/><circle cx="395.7" cy="738.1" r="273.1" class="cls-26"/><circle cx="386.7" cy="738.3" r="273.1" class="cls-211"/><circle cx="377.7" cy="738.3" r="273.1" class="cls-353"/><circle cx="368.8" cy="738.3" r="273.1" class="cls-324"/><circle cx="359.8" cy="738.3" r="273.1" class="cls-285"/><circle cx="350.3" cy="738.2" r="273.1" class="cls-324"/><circle cx="340.9" cy="738" r="273.1" class="cls-353"/><circle cx="331.4" cy="737.7" r="273.1" class="cls-211"/><circle cx="321.9" cy="737.3" r="273.1" class="cls-26"/><circle cx="312.4" cy="736.9" r="273.1" class="cls-127"/><circle cx="302.9" cy="736.3" r="273.1" class="cls-220"/><circle cx="293.4" cy="735.6" r="273.1" class="cls-159"/><circle cx="284" cy="734.9" r="273.1" class="cls-139"/><circle cx="274.5" cy="734" r="273.1" class="cls-121"/><circle cx="265.1" cy="732.9" r="273.1" class="cls-129"/><circle cx="255.6" cy="731.8" r="273.1" class="cls-106"/><circle cx="246.2" cy="730.5" r="273.1" class="cls-126"/><circle cx="236.9" cy="729" r="273.1" class="cls-131"/><circle cx="227.6" cy="727.4" r="273.1" class="cls-151"/><circle cx="218.3" cy="725.6" r="273.1" class="cls-299"/><circle cx="209.1" cy="723.7" r="273.1" class="cls-293"/><circle cx="199.9" cy="721.6" r="273.1" class="cls-237"/><circle cx="190.8" cy="719.3" r="273.1" class="cls-109"/><circle cx="181.7" cy="716.8" r="273.1" class="cls-68"/><circle cx="172.8" cy="714.1" r="273.1" class="cls-100"/><circle cx="163.8" cy="711.3" r="273.1" class="cls-2"/><circle cx="155" cy="708.2" r="273.1" class="cls-64"/><circle cx="146.3" cy="704.9" r="273.1" class="cls-250"/><circle cx="137.6" cy="701.4" r="273.1" class="cls-17"/><circle cx="129" cy="697.6" r="273.1" class="cls-70"/><circle cx="120.6" cy="693.7" r="273.1" class="cls-182"/><circle cx="112.2" cy="689.4" r="273.1" class="cls-47"/><circle cx="103.9" cy="685" r="273.1" class="cls-274"/><circle cx="95.8" cy="680.3" r="273.1" class="cls-219"/><circle cx="87.8" cy="675.3" r="273.1" class="cls-175"/><circle cx="79.9" cy="670" r="273.1" class="cls-267"/><circle cx="72.2" cy="664.6" r="273.1" class="cls-103"/><circle cx="64.7" cy="658.9" r="273.1" class="cls-28"/><circle cx="57.4" cy="652.9" r="273.1" class="cls-278"/><circle cx="50.3" cy="646.8" r="273.1" class="cls-23"/><circle cx="43.3" cy="640.4" r="273.1" class="cls-202"/><circle cx="36.5" cy="633.9" r="273.1" class="cls-101"/><circle cx="29.9" cy="627.1" r="273.1" class="cls-174"/><circle cx="23.6" cy="620.1" r="273.1" class="cls-290"/><circle cx="17.4" cy="613" r="273.1" class="cls-148"/><circle cx="11.5" cy="605.6" r="273.1" class="cls-337"/><circle cx="5.8" cy="598.1" r="273.1" class="cls-315"/><circle cx=".3" cy="590.5" r="273.1" class="cls-178"/><circle cx="-5" cy="582.6" r="273.1" class="cls-15"/><circle cx="-10" cy="574.7" r="273.1" class="cls-59"/><circle cx="-14.8" cy="566.5" r="273.1" class="cls-116"/><circle cx="-19.4" cy="558.3" r="273.1" class="cls-320"/><circle cx="-23.7" cy="549.9" r="273.1" class="cls-196"/><circle cx="-27.7" cy="541.4" r="273.1" class="cls-259"/><circle cx="-31.5" cy="532.7" r="273.1" class="cls-261"/><circle cx="-35" cy="524" r="273.1" class="cls-234"/><circle cx="-38.3" cy="515.1" r="273.1" class="cls-179"/><circle cx="-41.2" cy="506.2" r="273.1" class="cls-97"/><circle cx="-43.9" cy="497.1" r="273.1" class="cls-357"/><circle cx="-46.3" cy="488" r="273.1" class="cls-147"/><circle cx="-48.5" cy="478.8" r="273.1" class="cls-155"/><circle cx="-50.3" cy="469.6" r="273.1" class="cls-35"/><circle cx="-51.8" cy="460.3" r="273.1" class="cls-81"/><circle cx="-53.1" cy="450.9" r="273.1" class="cls-3"/><circle cx="-54" cy="441.5" r="273.1" class="cls-86"/><circle cx="-54.7" cy="432.1" r="273.1" class="cls-118"/><circle cx="-55.1" cy="422.7" r="273.1" class="cls-65"/><circle cx="-55.2" cy="413.3" r="273.1" class="cls-271"/><circle cx="-55.1" cy="403.8" r="273.1" class="cls-348"/><circle cx="-54.6" cy="394.4" r="273.1" class="cls-338"/><circle cx="-53.9" cy="385" r="273.1" class="cls-340"/><circle cx="-52.9" cy="375.6" r="273.1" class="cls-40"/><circle cx="-51.6" cy="366.3" r="273.1" class="cls-244"/><circle cx="-50.1" cy="357" r="273.1" class="cls-130"/><circle cx="-48.3" cy="347.7" r="273.1" class="cls-163"/><circle cx="-46.2" cy="338.5" r="273.1" class="cls-198"/><circle cx="-43.8" cy="329.4" r="273.1" class="cls-194"/><circle cx="-41.2" cy="320.3" r="273.1" class="cls-228"/><circle cx="-38.2" cy="311.4" r="273.1" class="cls-71"/><circle cx="-35" cy="302.5" r="273.1" class="cls-87"/><circle cx="-31.6" cy="293.7" r="273.1" class="cls-317"/><circle cx="-27.9" cy="285.1" r="273.1" class="cls-288"/><circle cx="-23.9" cy="276.5" r="273.1" class="cls-14"/><circle cx="-19.6" cy="268.1" r="273.1" class="cls-241"/><circle cx="-15.1" cy="259.8" r="273.1" class="cls-334"/><circle cx="-10" cy="251.6" r="273.1" class="cls-208"/><circle cx="-4.4" cy="243.8" r="273.1" class="cls-29"/><circle cx="1.8" cy="236.6" r="273.1" class="cls-149"/><circle cx="8.6" cy="230.2" r="273.1" class="cls-222"/><circle cx="16.1" cy="224.8" r="273.1" class="cls-356"/><circle cx="24.4" cy="220.7" r="273.1" class="cls-44"/><circle cx="33.4" cy="218" r="273.1" class="cls-255"/><circle cx="42.5" cy="217.2" r="273.1" class="cls-77"/><circle cx="51.5" cy="218" r="273.1" class="cls-268"/><circle cx="60.4" cy="220.4" r="273.1" class="cls-73"/><circle cx="68.8" cy="224.2" r="273.1" class="cls-226"/><circle cx="76.9" cy="229.2" r="273.1" class="cls-55"/><circle cx="84.3" cy="235.2" r="273.1" class="cls-8"/><circle cx="90.9" cy="242.2" r="273.1" class="cls-233"/><circle cx="96.8" cy="249.9" r="273.1" class="cls-92"/><circle cx="101.6" cy="258.3" r="273.1" class="cls-62"/><circle cx="105.3" cy="267.1" r="273.1" class="cls-11"/><circle cx="107.9" cy="276.1" r="273.1" class="cls-162"/><circle cx="109.7" cy="285.3" r="273.1" class="cls-167"/><circle cx="110.7" cy="294.5" r="273.1" class="cls-333"/><circle cx="111" cy="303.9" r="273.1" class="cls-185"/><circle cx="110.7" cy="313.2" r="273.1" class="cls-329"/><circle cx="109.9" cy="322.7" r="273.1" class="cls-161"/><circle cx="108.6" cy="332.1" r="273.1" class="cls-312"/><circle cx="107" cy="341.5" r="273.1" class="cls-270"/><circle cx="105.1" cy="350.8" r="273.1" class="cls-63"/><circle cx="102.9" cy="360.1" r="273.1" class="cls-52"/><circle cx="100.6" cy="369.3" r="273.1" class="cls-243"/><circle cx="98.3" cy="378.5" r="273.1" class="cls-209"/><circle cx="96" cy="387.7" r="273.1" class="cls-218"/><circle cx="93.8" cy="396.9" r="273.1" class="cls-57"/><circle cx="91.7" cy="406.2" r="273.1" class="cls-336"/><circle cx="90" cy="415.5" r="273.1" class="cls-282"/><circle cx="88.5" cy="424.8" r="273.1" class="cls-108"/><circle cx="87.5" cy="434.2" r="273.1" class="cls-24"/><circle cx="87" cy="443.5" r="273.1" class="cls-214"/><circle cx="87.1" cy="452.9" r="273.1" class="cls-156"/><circle cx="87.8" cy="462.2" r="273.1" class="cls-339"/><circle cx="89.3" cy="471.5" r="273.1" class="cls-42"/><circle cx="91.6" cy="480.6" r="273.1" class="cls-335"/><circle cx="94.7" cy="489.4" r="273.1" class="cls-292"/><circle cx="98.5" cy="497.9" r="273.1" class="cls-328"/><circle cx="103" cy="506.1" r="273.1" class="cls-346"/><circle cx="108.2" cy="513.9" r="273.1" class="cls-318"/><circle cx="113.9" cy="521.3" r="273.1" class="cls-213"/><circle cx="120.2" cy="528.2" r="273.1" class="cls-260"/><circle cx="127" cy="534.8" r="273.1" class="cls-74"/><circle cx="134.3" cy="540.8" r="273.1" class="cls-91"/><circle cx="141.9" cy="546.4" r="273.1" class="cls-157"/><circle cx="150" cy="551.4" r="273.1" class="cls-117"/><circle cx="158.4" cy="555.8" r="273.1" class="cls-36"/><circle cx="167.1" cy="559.7" r="273.1" class="cls-207"/><circle cx="176" cy="563" r="273.1" class="cls-58"/><circle cx="185.1" cy="565.6" r="273.1" class="cls-223"/><circle cx="194.4" cy="567.5" r="273.1" class="cls-173"/><circle cx="203.8" cy="568.8" r="273.1" class="cls-272"/><circle cx="213.3" cy="569.3" r="273.1" class="cls-199"/><circle cx="222.7" cy="569.1" r="273.1" class="cls-217"/><circle cx="232" cy="568.4" r="273.1" class="cls-43"/><circle cx="241.3" cy="567" r="273.1" class="cls-239"/><circle cx="250.4" cy="565" r="273.1" class="cls-311"/><circle cx="259.4" cy="562.4" r="273.1" class="cls-90"/><circle cx="268.2" cy="559.3" r="273.1" class="cls-166"/><circle cx="276.9" cy="555.6" r="273.1" class="cls-7"/><circle cx="285.3" cy="551.5" r="273.1" class="cls-246"/><circle cx="293.6" cy="546.9" r="273.1" class="cls-133"/><circle cx="301.5" cy="541.8" r="273.1" class="cls-67"/><circle cx="309.2" cy="536.3" r="273.1" class="cls-177"/><circle cx="316.6" cy="530.4" r="273.1" class="cls-54"/><circle cx="323.7" cy="524.1" r="273.1" class="cls-13"/><circle cx="330.5" cy="517.4" r="273.1" class="cls-4"/><circle cx="336.9" cy="510.4" r="273.1" class="cls-306"/><circle cx="342.9" cy="503" r="273.1" class="cls-275"/><circle cx="348.4" cy="495.4" r="273.1" class="cls-193"/><circle cx="353.6" cy="487.4" r="273.1" class="cls-172"/><circle cx="358.3" cy="479.3" r="273.1" class="cls-354"/><circle cx="362.6" cy="470.9" r="273.1" class="cls-307"/><circle cx="366.5" cy="462.3" r="273.1" class="cls-113"/><circle cx="370" cy="453.6" r="273.1" class="cls-351"/><circle cx="373.1" cy="444.8" r="273.1" class="cls-152"/><circle cx="375.8" cy="435.8" r="273.1" class="cls-145"/><circle cx="378" cy="426.7" r="273.1" class="cls-229"/><circle cx="379.9" cy="417.4" r="273.1" class="cls-119"/><circle cx="381.5" cy="408.2" r="273.1" class="cls-123"/><circle cx="382.6" cy="398.8" r="273.1" class="cls-304"/><circle cx="383.4" cy="389.4" r="273.1" class="cls-22"/><circle cx="383.9" cy="379.9" r="273.1" class="cls-350"/><circle cx="384" cy="370.5" r="273.1" class="cls-31"/><circle cx="383.7" cy="361" r="273.1" class="cls-154"/><circle cx="383.1" cy="351.5" r="273.1" class="cls-96"/><circle cx="382.2" cy="342.1" r="273.1" class="cls-362"/><circle cx="380.9" cy="332.7" r="273.1" class="cls-286"/><circle cx="379.4" cy="323.4" r="273.1" class="cls-107"/><circle cx="377.5" cy="314.1" r="273.1" class="cls-111"/><circle cx="375.3" cy="304.9" r="273.1" class="cls-221"/><circle cx="372.9" cy="295.9" r="273.1" class="cls-38"/><circle cx="370.2" cy="286.8" r="273.1" class="cls-349"/><circle cx="367.2" cy="277.9" r="273.1" class="cls-302"/><circle cx="364" cy="269.1" r="273.1" class="cls-102"/><circle cx="360.6" cy="260.3" r="273.1" class="cls-327"/><circle cx="356.8" cy="251.5" r="273.1" class="cls-330"/><circle cx="353.1" cy="243.3" r="273.1" class="cls-327"/><circle cx="349.1" cy="235" r="273.1" class="cls-102"/><circle cx="344.9" cy="226.8" r="273.1" class="cls-302"/><circle cx="340.6" cy="218.7" r="273.1" class="cls-349"/><circle cx="336.1" cy="210.6" r="273.1" class="cls-38"/><circle cx="331.4" cy="202.7" r="273.1" class="cls-221"/><circle cx="326.6" cy="194.8" r="273.1" class="cls-111"/><circle cx="321.6" cy="187" r="273.1" class="cls-107"/><circle cx="316.5" cy="179.3" r="273.1" class="cls-286"/><circle cx="311.3" cy="171.7" r="273.1" class="cls-362"/><circle cx="306" cy="164.2" r="273.1" class="cls-96"/><circle cx="300.6" cy="156.7" r="273.1" class="cls-154"/><circle cx="295" cy="149.1" r="273.1" class="cls-31"/><circle cx="289.5" cy="141.3" r="273.1" class="cls-350"/><circle cx="284.1" cy="133.4" r="273.1" class="cls-22"/><circle cx="278.9" cy="125.3" r="273.1" class="cls-304"/><circle cx="274" cy="117.1" r="273.1" class="cls-123"/><circle cx="269.6" cy="108.8" r="273.1" class="cls-119"/><circle cx="265.7" cy="100.3" r="273.1" class="cls-229"/><circle cx="262.5" cy="91.8" r="273.1" class="cls-145"/><circle cx="260.1" cy="83.2" r="273.1" class="cls-152"/><circle cx="258.5" cy="74.6" r="273.1" class="cls-351"/><circle cx="258" cy="65.9" r="273.1" class="cls-113"/><circle cx="258.6" cy="57.2" r="273.1" class="cls-307"/><circle cx="260.4" cy="48.4" r="273.1" class="cls-354"/><circle cx="263.5" cy="39.8" r="273.1" class="cls-172"/><circle cx="267.8" cy="32" r="273.1" class="cls-193"/><circle cx="273.1" cy="24.9" r="273.1" class="cls-275"/><circle cx="279.3" cy="18.6" r="273.1" class="cls-306"/><circle cx="286.3" cy="13" r="273.1" class="cls-4"/><circle cx="294.1" cy="8.3" r="273.1" class="cls-13"/><circle cx="302.3" cy="4.3" r="273.1" class="cls-54"/><circle cx="311.1" cy="1" r="273.1" class="cls-177"/><circle cx="320.2" cy="-1.5" r="273.1" class="cls-67"/><circle cx="329.5" cy="-3.3" r="273.1" class="cls-133"/><circle cx="338.9" cy="-4.3" r="273.1" class="cls-246"/><circle cx="348.4" cy="-4.6" r="273.1" class="cls-7"/><circle cx="357.7" cy="-4.1" r="273.1" class="cls-166"/><circle cx="366.9" cy="-3" r="273.1" class="cls-90"/><circle cx="375.8" cy="-1.4" r="273.1" class="cls-311"/><circle cx="384.6" cy=".8" r="273.1" class="cls-239"/><circle cx="393.3" cy="3.4" r="273.1" class="cls-43"/><circle cx="401.8" cy="6.5" r="273.1" class="cls-217"/><circle cx="410" cy="10" r="273.1" class="cls-199"/><circle cx="418.1" cy="13.9" r="273.1" class="cls-272"/><circle cx="426" cy="18.3" r="273.1" class="cls-173"/><circle cx="433.7" cy="23.1" r="273.1" class="cls-223"/><circle cx="441.2" cy="28.2" r="273.1" class="cls-58"/><circle cx="448.5" cy="33.6" r="273.1" class="cls-207"/><circle cx="455.5" cy="39.5" r="273.1" class="cls-36"/><circle cx="462.3" cy="45.6" r="273.1" class="cls-117"/><circle cx="468.9" cy="52.1" r="273.1" class="cls-157"/><circle cx="475.3" cy="58.8" r="273.1" class="cls-91"/><circle cx="481.4" cy="65.8" r="273.1" class="cls-74"/><circle cx="487.2" cy="73" r="273.1" class="cls-260"/><circle cx="492.8" cy="80.5" r="273.1" class="cls-213"/><circle cx="498.1" cy="88.2" r="273.1" class="cls-318"/><circle cx="503.1" cy="96.1" r="273.1" class="cls-346"/><circle cx="507.9" cy="104.2" r="273.1" class="cls-328"/><circle cx="512.4" cy="112.4" r="273.1" class="cls-292"/><circle cx="516.5" cy="120.8" r="273.1" class="cls-335"/><circle cx="520.4" cy="129.3" r="273.1" class="cls-42"/><circle cx="524" cy="138" r="273.1" class="cls-339"/><circle cx="527.3" cy="146.7" r="273.1" class="cls-156"/><circle cx="530.2" cy="155.5" r="273.1" class="cls-214"/><circle cx="532.8" cy="164.3" r="273.1" class="cls-24"/><circle cx="535.2" cy="173.2" r="273.1" class="cls-108"/><circle cx="537.3" cy="182.1" r="273.1" class="cls-282"/><circle cx="539.2" cy="191" r="273.1" class="cls-336"/><circle cx="540.8" cy="200" r="273.1" class="cls-57"/><circle cx="542.2" cy="209.1" r="273.1" class="cls-218"/><circle cx="543.5" cy="218.1" r="273.1" class="cls-209"/><circle cx="544.5" cy="227.2" r="273.1" class="cls-243"/><circle cx="545.3" cy="236.3" r="273.1" class="cls-52"/><circle cx="546" cy="245.4" r="273.1" class="cls-63"/><circle cx="546.4" cy="254.6" r="273.1" class="cls-270"/><circle cx="546.8" cy="263.7" r="273.1" class="cls-312"/><circle cx="546.9" cy="272.9" r="273.1" class="cls-161"/><circle cx="546.9" cy="282.1" r="273.1" class="cls-329"/><circle cx="546.8" cy="291.3" r="273.1" class="cls-185"/><circle cx="546.6" cy="300.6" r="273.1" class="cls-333"/><circle cx="546.2" cy="309.8" r="273.1" class="cls-167"/><circle cx="545.8" cy="319" r="273.1" class="cls-162"/><circle cx="545.2" cy="328.3" r="273.1" class="cls-11"/><circle cx="544.6" cy="337.5" r="273.1" class="cls-62"/><circle cx="543.9" cy="346.8" r="273.1" class="cls-92"/><circle cx="543.1" cy="356" r="273.1" class="cls-233"/><circle cx="542.3" cy="365.2" r="273.1" class="cls-8"/><circle cx="541.4" cy="374.4" r="273.1" class="cls-55"/><circle cx="540.5" cy="383.6" r="273.1" class="cls-226"/><circle cx="539.5" cy="392.9" r="273.1" class="cls-73"/><circle cx="538.5" cy="402" r="273.1" class="cls-268"/><circle cx="537.5" cy="411.2" r="273.1" class="cls-77"/><circle cx="536.6" cy="420.5" r="273.1" class="cls-255"/><circle cx="535.9" cy="429.9" r="273.1" class="cls-44"/><circle cx="535.4" cy="439.4" r="273.1" class="cls-356"/><circle cx="535.4" cy="448.8" r="273.1" class="cls-222"/><circle cx="536" cy="458.2" r="273.1" class="cls-149"/><circle cx="537.2" cy="467.3" r="273.1" class="cls-29"/><circle cx="539.2" cy="476.1" r="273.1" class="cls-208"/><circle cx="542.2" cy="484.5" r="273.1" class="cls-334"/><circle cx="546.1" cy="492.4" r="273.1" class="cls-241"/><circle cx="551.2" cy="499.8" r="273.1" class="cls-14"/><circle cx="557.5" cy="506.4" r="273.1" class="cls-288"/><circle cx="564.7" cy="511.9" r="273.1" class="cls-317"/><circle cx="572.6" cy="516.2" r="273.1" class="cls-87"/><circle cx="581" cy="519.5" r="273.1" class="cls-71"/><circle cx="589.9" cy="521.8" r="273.1" class="cls-228"/><circle cx="599" cy="523.2" r="273.1" class="cls-194"/><circle cx="608.4" cy="523.8" r="273.1" class="cls-198"/><circle cx="617.8" cy="523.7" r="273.1" class="cls-163"/><circle cx="627.1" cy="522.9" r="273.1" class="cls-130"/><circle cx="636.2" cy="521.6" r="273.1" class="cls-244"/><circle cx="645.2" cy="519.8" r="273.1" class="cls-40"/><circle cx="654.1" cy="517.5" r="273.1" class="cls-340"/><circle cx="662.8" cy="514.9" r="273.1" class="cls-338"/><circle cx="671.3" cy="511.8" r="273.1" class="cls-348"/><circle cx="679.6" cy="508.4" r="273.1" class="cls-271"/><circle cx="687.8" cy="504.6" r="273.1" class="cls-65"/><circle cx="695.8" cy="500.4" r="273.1" class="cls-118"/><circle cx="703.6" cy="495.8" r="273.1" class="cls-86"/><circle cx="711.3" cy="491" r="273.1" class="cls-3"/><circle cx="718.7" cy="485.8" r="273.1" class="cls-81"/><circle cx="725.9" cy="480.2" r="273.1" class="cls-35"/><circle cx="732.9" cy="474.4" r="273.1" class="cls-155"/><circle cx="739.6" cy="468.3" r="273.1" class="cls-147"/><circle cx="746.2" cy="461.9" r="273.1" class="cls-357"/><circle cx="752.5" cy="455.2" r="273.1" class="cls-97"/><circle cx="758.6" cy="448.3" r="273.1" class="cls-179"/><circle cx="764.4" cy="441.2" r="273.1" class="cls-234"/><circle cx="770" cy="433.8" r="273.1" class="cls-261"/><circle cx="775.4" cy="426.2" r="273.1" class="cls-259"/><circle cx="780.5" cy="418.4" r="273.1" class="cls-196"/><circle cx="785.3" cy="410.5" r="273.1" class="cls-320"/><circle cx="789.8" cy="402.3" r="273.1" class="cls-116"/><circle cx="794" cy="394" r="273.1" class="cls-59"/><circle cx="798" cy="385.6" r="273.1" class="cls-15"/><circle cx="801.7" cy="377" r="273.1" class="cls-178"/><circle cx="805.1" cy="368.3" r="273.1" class="cls-315"/><circle cx="808.1" cy="359.5" r="273.1" class="cls-337"/><circle cx="810.9" cy="350.6" r="273.1" class="cls-148"/><circle cx="813.4" cy="341.6" r="273.1" class="cls-290"/><circle cx="815.5" cy="332.5" r="273.1" class="cls-174"/><circle cx="817.3" cy="323.4" r="273.1" class="cls-101"/><circle cx="818.7" cy="314.2" r="273.1" class="cls-202"/><circle cx="819.9" cy="305" r="273.1" class="cls-23"/><circle cx="820.6" cy="295.8" r="273.1" class="cls-278"/><circle cx="821.1" cy="286.6" r="273.1" class="cls-28"/><circle cx="821.3" cy="277.5" r="273.1" class="cls-103"/><circle cx="821.2" cy="268.4" r="273.1" class="cls-267"/><circle cx="820.9" cy="259.2" r="273.1" class="cls-175"/><circle cx="820.2" cy="250.2" r="273.1" class="cls-219"/><circle cx="819.4" cy="241.1" r="273.1" class="cls-274"/><circle cx="818.2" cy="232.1" r="273.1" class="cls-47"/><circle cx="816.9" cy="223.1" r="273.1" class="cls-182"/><circle cx="815.2" cy="214.1" r="273.1" class="cls-70"/><circle cx="813.4" cy="205.2" r="273.1" class="cls-17"/><circle cx="811.3" cy="196.3" r="273.1" class="cls-250"/><circle cx="809" cy="187.4" r="273.1" class="cls-64"/><circle cx="806.5" cy="178.6" r="273.1" class="cls-2"/><circle cx="803.7" cy="169.9" r="273.1" class="cls-100"/><circle cx="800.8" cy="161.2" r="273.1" class="cls-68"/><circle cx="797.6" cy="152.6" r="273.1" class="cls-109"/><circle cx="794.2" cy="144" r="273.1" class="cls-237"/><circle cx="790.7" cy="135.5" r="273.1" class="cls-293"/><circle cx="787" cy="127" r="273.1" class="cls-299"/><circle cx="783" cy="118.7" r="273.1" class="cls-151"/><circle cx="779" cy="110.4" r="273.1" class="cls-131"/><circle cx="774.7" cy="102.1" r="273.1" class="cls-126"/><circle cx="770.3" cy="94" r="273.1" class="cls-106"/><circle cx="765.7" cy="85.9" r="273.1" class="cls-129"/><circle cx="761" cy="77.9" r="273.1" class="cls-121"/><circle cx="756.1" cy="70" r="273.1" class="cls-139"/><circle cx="751" cy="62.2" r="273.1" class="cls-159"/><circle cx="745.9" cy="54.5" r="273.1" class="cls-220"/><circle cx="740.6" cy="46.8" r="273.1" class="cls-127"/><circle cx="735.2" cy="39.3" r="273.1" class="cls-26"/><circle cx="729.6" cy="31.9" r="273.1" class="cls-211"/><circle cx="724" cy="24.5" r="273.1" class="cls-353"/><circle cx="718.2" cy="17.3" r="273.1" class="cls-324"/><circle cx="712.4" cy="10.2" r="273.1" class="cls-285"/></g></svg>