<svg xmlns="http://www.w3.org/2000/svg" id="Layer_3" data-name="Layer 3" viewBox="0 0 720 720" xmlns:xlink="http://www.w3.org/1999/xlink"><defs><clipPath id="clippath"><path d="M0 0h720v720H0z" style="fill:none"/></clipPath><style>.cls-117{fill:#141a4b}.cls-242{fill:#bdc7ff}.cls-257{fill:#bdc6ff}</style></defs><g style="clip-path:url(#clippath)"><circle cx="-41.5" cy="650.8" r="228.5" class="cls-242"/><circle cx="-43.5" cy="649.1" r="228.5" style="fill:#bcc6fe"/><circle cx="-45.5" cy="647.1" r="228.5" style="fill:#bbc5fd"/><circle cx="-47.4" cy="644.9" r="228.5" style="fill:#bac4fc"/><circle cx="-49.4" cy="642.4" r="228.5" style="fill:#b9c3fb"/><circle cx="-51.2" cy="639.7" r="228.5" style="fill:#b8c2fa"/><circle cx="-53.1" cy="636.8" r="228.5" style="fill:#b7c1f9"/><circle cx="-54.9" cy="633.6" r="228.5" style="fill:#b6c0f8"/><circle cx="-56.7" cy="630.2" r="228.5" style="fill:#b5bff7"/><circle cx="-58.5" cy="626.6" r="228.5" style="fill:#b5bef6"/><circle cx="-60.2" cy="622.8" r="228.5" style="fill:#b4bdf5"/><circle cx="-61.9" cy="618.8" r="228.5" style="fill:#b3bcf4"/><circle cx="-63.6" cy="614.6" r="228.5" style="fill:#b2bbf3"/><circle cx="-65.3" cy="610.2" r="228.5" style="fill:#b1bbf2"/><circle cx="-66.9" cy="605.6" r="228.5" style="fill:#b0baf1"/><circle cx="-68.5" cy="600.8" r="228.5" style="fill:#afb9f0"/><circle cx="-70" cy="595.9" r="228.5" style="fill:#aeb8ef"/><circle cx="-71.6" cy="590.8" r="228.5" style="fill:#adb7ee"/><circle cx="-73.1" cy="585.5" r="228.5" style="fill:#acb6ed"/><circle cx="-74.5" cy="580.1" r="228.5" style="fill:#abb5ec"/><circle cx="-76" cy="574.5" r="228.5" style="fill:#aab4eb"/><circle cx="-77.4" cy="568.8" r="228.5" style="fill:#a9b3ea"/><circle cx="-78.8" cy="562.9" r="228.5" style="fill:#a8b2e9"/><circle cx="-80.1" cy="556.9" r="228.5" style="fill:#a7b1e8"/><circle cx="-81.4" cy="550.8" r="228.5" style="fill:#a6b0e7"/><circle cx="-82.7" cy="544.6" r="228.5" style="fill:#a6afe6"/><circle cx="-83.9" cy="538.2" r="228.5" style="fill:#a5aee5"/><circle cx="-85.1" cy="531.8" r="228.5" style="fill:#a4ade4"/><circle cx="-86.3" cy="525.2" r="228.5" style="fill:#a3ace3"/><circle cx="-87.5" cy="518.6" r="228.5" style="fill:#a2abe2"/><circle cx="-88.5" cy="511.9" r="228.5" style="fill:#a1aae1"/><circle cx="-89.6" cy="505.1" r="228.5" style="fill:#a0a9e0"/><circle cx="-90.7" cy="498.1" r="228.5" style="fill:#9fa8df"/><circle cx="-91.7" cy="491.2" r="228.5" style="fill:#9ea7de"/><circle cx="-92.6" cy="484.2" r="228.5" style="fill:#9da6dd"/><circle cx="-93.6" cy="477.1" r="228.5" style="fill:#9ca5dc"/><circle cx="-94.5" cy="469.9" r="228.5" style="fill:#9ba4db"/><circle cx="-95.3" cy="462.8" r="228.5" style="fill:#9aa3da"/><circle cx="-96.1" cy="455.5" r="228.5" style="fill:#99a2d9"/><circle cx="-96.9" cy="448.3" r="228.5" style="fill:#98a2d8"/><circle cx="-97.7" cy="441" r="228.5" style="fill:#97a1d7"/><circle cx="-98.4" cy="433.7" r="228.5" style="fill:#96a0d6"/><circle cx="-99.1" cy="426.4" r="228.5" style="fill:#969fd5"/><circle cx="-99.7" cy="419" r="228.5" style="fill:#959ed4"/><circle cx="-100.3" cy="411.7" r="228.5" style="fill:#949dd3"/><circle cx="-100.9" cy="404.4" r="228.5" style="fill:#939cd2"/><circle cx="-101.4" cy="397.1" r="228.5" style="fill:#929bd1"/><circle cx="-101.9" cy="389.8" r="228.5" style="fill:#919ad0"/><circle cx="-102.3" cy="382.5" r="228.5" style="fill:#9099cf"/><circle cx="-102.7" cy="375.2" r="228.5" style="fill:#8f98ce"/><circle cx="-103.1" cy="368" r="228.5" style="fill:#8e97cd"/><circle cx="-103.4" cy="360.8" r="228.5" style="fill:#8d96cc"/><circle cx="-103.7" cy="353.6" r="228.5" style="fill:#8c95cb"/><circle cx="-104" cy="346.6" r="228.5" style="fill:#8b94ca"/><circle cx="-104.2" cy="339.5" r="228.5" style="fill:#8a93c9"/><circle cx="-104.4" cy="332.5" r="228.5" style="fill:#8992c8"/><circle cx="-104.5" cy="325.6" r="228.5" style="fill:#8891c7"/><circle cx="-104.6" cy="318.8" r="228.5" style="fill:#8790c6"/><circle cx="-104.6" cy="312.1" r="228.5" style="fill:#878fc5"/><circle cx="-104.6" cy="305.4" r="228.5" style="fill:#868ec4"/><circle cx="-104.6" cy="298.9" r="228.5" style="fill:#858dc3"/><circle cx="-104.5" cy="292.4" r="228.5" style="fill:#848cc2"/><circle cx="-104.4" cy="286" r="228.5" style="fill:#838bc1"/><circle cx="-104.2" cy="279.8" r="228.5" style="fill:#828ac0"/><circle cx="-104" cy="273.6" r="228.5" style="fill:#8189bf"/><circle cx="-103.8" cy="267.6" r="228.5" style="fill:#8089be"/><circle cx="-103.5" cy="261.8" r="228.5" style="fill:#7f88bd"/><circle cx="-103.2" cy="256" r="228.5" style="fill:#7e87bc"/><circle cx="-102.8" cy="250.4" r="228.5" style="fill:#7d86bb"/><circle cx="-102.4" cy="245" r="228.5" style="fill:#7c85ba"/><circle cx="-101.9" cy="239.7" r="228.5" style="fill:#7b84b9"/><circle cx="-101.4" cy="234.6" r="228.5" style="fill:#7a83b8"/><circle cx="-100.8" cy="229.6" r="228.5" style="fill:#7982b7"/><circle cx="-100.2" cy="224.8" r="228.5" style="fill:#7881b6"/><circle cx="-99.6" cy="220.2" r="228.5" style="fill:#7780b5"/><circle cx="-98.9" cy="215.8" r="228.5" style="fill:#777fb4"/><circle cx="-98.2" cy="211.5" r="228.5" style="fill:#767eb3"/><circle cx="-97.4" cy="207.5" r="228.5" style="fill:#757db2"/><circle cx="-96.5" cy="203.6" r="228.5" style="fill:#747cb1"/><circle cx="-95.7" cy="200" r="228.5" style="fill:#737bb0"/><circle cx="-94.7" cy="196.6" r="228.5" style="fill:#727aaf"/><circle cx="-93.8" cy="193.4" r="228.5" style="fill:#7179ae"/><circle cx="-92.8" cy="190.4" r="228.5" style="fill:#7078ad"/><circle cx="-91.7" cy="187.7" r="228.5" style="fill:#6f77ac"/><circle cx="-90.6" cy="185.2" r="228.5" style="fill:#6e76ab"/><circle cx="-88.5" cy="181.2" r="228.5" style="fill:#6d75aa"/><circle cx="-85.8" cy="176.3" r="228.5" style="fill:#6c74a9"/><circle cx="-82.9" cy="171.4" r="228.5" style="fill:#6b73a8"/><circle cx="-79.9" cy="166.7" r="228.5" style="fill:#6a72a7"/><circle cx="-76.7" cy="162" r="228.5" style="fill:#6971a6"/><circle cx="-73.4" cy="157.5" r="228.5" style="fill:#6870a5"/><circle cx="-69.9" cy="153.1" r="228.5" style="fill:#6870a4"/><circle cx="-66.3" cy="148.8" r="228.5" style="fill:#676fa3"/><circle cx="-62.6" cy="144.5" r="228.5" style="fill:#666ea2"/><circle cx="-58.8" cy="140.4" r="228.5" style="fill:#656da1"/><circle cx="-54.8" cy="136.4" r="228.5" style="fill:#646ca0"/><circle cx="-50.7" cy="132.6" r="228.5" style="fill:#636b9f"/><circle cx="-46.5" cy="128.8" r="228.5" style="fill:#626a9e"/><circle cx="-42.2" cy="125.1" r="228.5" style="fill:#61699d"/><circle cx="-37.8" cy="121.6" r="228.5" style="fill:#60689c"/><circle cx="-33.3" cy="118.2" r="228.5" style="fill:#5f679b"/><circle cx="-28.7" cy="114.9" r="228.5" style="fill:#5e669a"/><circle cx="-24.1" cy="111.7" r="228.5" style="fill:#5d6599"/><circle cx="-19.3" cy="108.6" r="228.5" style="fill:#5c6498"/><circle cx="-14.4" cy="105.7" r="228.5" style="fill:#5b6397"/><circle cx="-9.5" cy="102.8" r="228.5" style="fill:#5a6296"/><circle cx="-4.5" cy="100.1" r="228.5" style="fill:#596195"/><circle cx=".6" cy="97.5" r="228.5" style="fill:#596094"/><circle cx="5.7" cy="95.1" r="228.5" style="fill:#585f93"/><circle cx="10.9" cy="92.8" r="228.5" style="fill:#575e92"/><circle cx="16.2" cy="90.6" r="228.5" style="fill:#565d91"/><circle cx="21.5" cy="88.5" r="228.5" style="fill:#555c90"/><circle cx="26.9" cy="86.5" r="228.5" style="fill:#545b8f"/><circle cx="32.3" cy="84.7" r="228.5" style="fill:#535a8e"/><circle cx="37.8" cy="83" r="228.5" style="fill:#52598d"/><circle cx="43.3" cy="81.5" r="228.5" style="fill:#51588c"/><circle cx="48.8" cy="80.1" r="228.5" style="fill:#50578b"/><circle cx="54.4" cy="78.8" r="228.5" style="fill:#4f578a"/><circle cx="60" cy="77.6" r="228.5" style="fill:#4e5689"/><circle cx="65.6" cy="76.6" r="228.5" style="fill:#4d5588"/><circle cx="71.2" cy="75.7" r="228.5" style="fill:#4c5487"/><circle cx="76.8" cy="75" r="228.5" style="fill:#4b5386"/><circle cx="82.5" cy="74.4" r="228.5" style="fill:#4a5285"/><circle cx="88.2" cy="73.9" r="228.5" style="fill:#495184"/><circle cx="93.8" cy="73.6" r="228.5" style="fill:#495083"/><circle cx="99.5" cy="73.4" r="228.5" style="fill:#484f82"/><circle cx="105.2" cy="73.3" r="228.5" style="fill:#474e81"/><circle cx="110.9" cy="73.4" r="228.5" style="fill:#464d80"/><circle cx="116.6" cy="73.6" r="228.5" style="fill:#454c7f"/><circle cx="122.3" cy="74" r="228.5" style="fill:#444b7e"/><circle cx="127.9" cy="74.4" r="228.5" style="fill:#434a7d"/><circle cx="133.6" cy="75" r="228.5" style="fill:#42497c"/><circle cx="139.2" cy="75.8" r="228.5" style="fill:#41487b"/><circle cx="144.8" cy="76.6" r="228.5" style="fill:#40477a"/><circle cx="150.4" cy="77.6" r="228.5" style="fill:#3f4679"/><circle cx="156" cy="78.8" r="228.5" style="fill:#3e4578"/><circle cx="161.5" cy="80" r="228.5" style="fill:#3d4477"/><circle cx="167" cy="81.4" r="228.5" style="fill:#3c4376"/><circle cx="172.5" cy="83" r="228.5" style="fill:#3b4275"/><circle cx="177.9" cy="84.7" r="228.5" style="fill:#3a4174"/><circle cx="183.3" cy="86.5" r="228.5" style="fill:#3a4073"/><circle cx="188.6" cy="88.4" r="228.5" style="fill:#393f72"/><circle cx="193.8" cy="90.5" r="228.5" style="fill:#383e71"/><circle cx="199.1" cy="92.7" r="228.5" style="fill:#373e70"/><circle cx="204.2" cy="95.1" r="228.5" style="fill:#363d6f"/><circle cx="209.3" cy="97.6" r="228.5" style="fill:#353c6e"/><circle cx="214.3" cy="100.2" r="228.5" style="fill:#343b6d"/><circle cx="219.2" cy="103" r="228.5" style="fill:#333a6c"/><circle cx="224" cy="105.9" r="228.5" style="fill:#32396b"/><circle cx="228.8" cy="109" r="228.5" style="fill:#31386a"/><circle cx="233.5" cy="112.1" r="228.5" style="fill:#303769"/><circle cx="238.1" cy="115.5" r="228.5" style="fill:#2f3668"/><circle cx="242.6" cy="118.9" r="228.5" style="fill:#2e3567"/><circle cx="247" cy="122.5" r="228.5" style="fill:#2d3466"/><circle cx="251.2" cy="126.3" r="228.5" style="fill:#2c3365"/><circle cx="255.4" cy="130.1" r="228.5" style="fill:#2b3264"/><circle cx="259.4" cy="134.1" r="228.5" style="fill:#2a3163"/><circle cx="263.4" cy="138.3" r="228.5" style="fill:#2a3062"/><circle cx="267.2" cy="142.5" r="228.5" style="fill:#292f61"/><circle cx="270.8" cy="146.8" r="228.5" style="fill:#282e60"/><circle cx="274.4" cy="151.3" r="228.5" style="fill:#272d5f"/><circle cx="277.8" cy="155.9" r="228.5" style="fill:#262c5e"/><circle cx="281" cy="160.6" r="228.5" style="fill:#252b5d"/><circle cx="284.1" cy="165.3" r="228.5" style="fill:#242a5c"/><circle cx="287.1" cy="170.2" r="228.5" style="fill:#23295b"/><circle cx="289.9" cy="175.1" r="228.5" style="fill:#22285a"/><circle cx="292.6" cy="180.1" r="228.5" style="fill:#212759"/><circle cx="295" cy="185.2" r="228.5" style="fill:#202658"/><circle cx="297.4" cy="190.4" r="228.5" style="fill:#1f2557"/><circle cx="299.5" cy="195.6" r="228.5" style="fill:#1e2556"/><circle cx="301.5" cy="200.9" r="228.5" style="fill:#1d2455"/><circle cx="303.4" cy="206.3" r="228.5" style="fill:#1c2354"/><circle cx="305" cy="211.7" r="228.5" style="fill:#1b2253"/><circle cx="306.5" cy="217.2" r="228.5" style="fill:#1b2152"/><circle cx="307.8" cy="222.7" r="228.5" style="fill:#1a2051"/><circle cx="308.9" cy="228.2" r="228.5" style="fill:#191f50"/><circle cx="309.8" cy="233.8" r="228.5" style="fill:#181e4f"/><circle cx="310.5" cy="239.4" r="228.5" style="fill:#171d4e"/><circle cx="311" cy="245" r="228.5" style="fill:#161c4d"/><circle cx="311.3" cy="250.6" r="228.5" style="fill:#151b4c"/><circle cx="311.4" cy="256.3" r="228.5" class="cls-117"/><circle cx="311.3" cy="262" r="228.5" style="fill:#13194a"/><circle cx="311.1" cy="265.8" r="228.5" class="cls-117"/><circle cx="310.8" cy="269.6" r="228.5" style="fill:#151a4c"/><circle cx="310.4" cy="273.4" r="228.5" style="fill:#151b4d"/><circle cx="310" cy="277.2" r="228.5" style="fill:#161b4e"/><circle cx="309.4" cy="281" r="228.5" style="fill:#171c4f"/><circle cx="308.8" cy="284.8" r="228.5" style="fill:#181c50"/><circle cx="308.1" cy="288.5" r="228.5" style="fill:#191d51"/><circle cx="307.3" cy="292.3" r="228.5" style="fill:#191d52"/><circle cx="306.5" cy="296" r="228.5" style="fill:#1a1e53"/><circle cx="305.5" cy="299.7" r="228.5" style="fill:#1b1e54"/><circle cx="304.6" cy="303.4" r="228.5" style="fill:#1c1f55"/><circle cx="303.5" cy="307.1" r="228.5" style="fill:#1c1f56"/><circle cx="302.4" cy="310.7" r="228.5" style="fill:#1d2057"/><circle cx="301.2" cy="314.3" r="228.5" style="fill:#1e2058"/><circle cx="299.9" cy="318" r="228.5" style="fill:#1f2159"/><circle cx="298.6" cy="321.6" r="228.5" style="fill:#20215a"/><circle cx="297.2" cy="325.2" r="228.5" style="fill:#20225b"/><circle cx="295.8" cy="328.7" r="228.5" style="fill:#21225c"/><circle cx="294.3" cy="332.3" r="228.5" style="fill:#22235d"/><circle cx="292.8" cy="335.8" r="228.5" style="fill:#23235e"/><circle cx="291.2" cy="339.4" r="228.5" style="fill:#24245f"/><circle cx="289.6" cy="342.9" r="228.5" style="fill:#242460"/><circle cx="287.9" cy="346.4" r="228.5" style="fill:#252561"/><circle cx="286.2" cy="349.9" r="228.5" style="fill:#262562"/><circle cx="284.4" cy="353.3" r="228.5" style="fill:#272663"/><circle cx="282.6" cy="356.8" r="228.5" style="fill:#282764"/><circle cx="280.8" cy="360.2" r="228.5" style="fill:#282765"/><circle cx="278.9" cy="363.6" r="228.5" style="fill:#292866"/><circle cx="277.1" cy="367" r="228.5" style="fill:#2a2867"/><circle cx="275.1" cy="370.4" r="228.5" style="fill:#2b2968"/><circle cx="273.2" cy="373.7" r="228.5" style="fill:#2b2969"/><circle cx="271.2" cy="377.1" r="228.5" style="fill:#2c2a6a"/><circle cx="269.2" cy="380.4" r="228.5" style="fill:#2d2a6b"/><circle cx="267.2" cy="383.7" r="228.5" style="fill:#2e2b6c"/><circle cx="265.1" cy="387" r="228.5" style="fill:#2f2b6d"/><circle cx="263.1" cy="390.3" r="228.5" style="fill:#2f2c6e"/><circle cx="261" cy="393.5" r="228.5" style="fill:#302c6f"/><circle cx="258.9" cy="396.8" r="228.5" style="fill:#312d70"/><circle cx="256.8" cy="400" r="228.5" style="fill:#322d71"/><circle cx="254.7" cy="403.2" r="228.5" style="fill:#332e72"/><circle cx="252.6" cy="406.4" r="228.5" style="fill:#332e73"/><circle cx="250.5" cy="409.7" r="228.5" style="fill:#342f74"/><circle cx="248.4" cy="412.9" r="228.5" style="fill:#352f75"/><circle cx="246.2" cy="416.1" r="228.5" style="fill:#363076"/><circle cx="244.1" cy="419.3" r="228.5" style="fill:#373077"/><circle cx="241.9" cy="422.5" r="228.5" style="fill:#373178"/><circle cx="239.8" cy="425.8" r="228.5" style="fill:#383179"/><circle cx="237.7" cy="429" r="228.5" style="fill:#39327a"/><circle cx="235.6" cy="432.2" r="228.5" style="fill:#3a327b"/><circle cx="233.4" cy="435.4" r="228.5" style="fill:#3b337c"/><circle cx="231.3" cy="438.7" r="228.5" style="fill:#3b337d"/><circle cx="229.2" cy="441.9" r="228.5" style="fill:#3c347e"/><circle cx="227.1" cy="445.1" r="228.5" style="fill:#3d357f"/><circle cx="225" cy="448.4" r="228.5" style="fill:#3e3580"/><circle cx="223" cy="451.7" r="228.5" style="fill:#3e3681"/><circle cx="220.9" cy="454.9" r="228.5" style="fill:#3f3682"/><circle cx="218.9" cy="458.2" r="228.5" style="fill:#403783"/><circle cx="216.9" cy="461.5" r="228.5" style="fill:#413784"/><circle cx="214.9" cy="464.8" r="228.5" style="fill:#423885"/><circle cx="213" cy="468.1" r="228.5" style="fill:#423886"/><circle cx="211.1" cy="471.4" r="228.5" style="fill:#433987"/><circle cx="209.2" cy="474.8" r="228.5" style="fill:#443988"/><circle cx="207.3" cy="478.1" r="228.5" style="fill:#453a89"/><circle cx="205.5" cy="481.5" r="228.5" style="fill:#463a8a"/><circle cx="203.7" cy="484.9" r="228.5" style="fill:#463b8b"/><circle cx="201.9" cy="488.3" r="228.5" style="fill:#473b8c"/><circle cx="200.2" cy="491.7" r="228.5" style="fill:#483c8d"/><circle cx="198.5" cy="495.2" r="228.5" style="fill:#493c8e"/><circle cx="196.8" cy="498.6" r="228.5" style="fill:#4a3d8f"/><circle cx="195.3" cy="502.1" r="228.5" style="fill:#4a3d90"/><circle cx="193.7" cy="505.6" r="228.5" style="fill:#4b3e91"/><circle cx="192.2" cy="509.2" r="228.5" style="fill:#4c3e92"/><circle cx="190.7" cy="512.7" r="228.5" style="fill:#4d3f93"/><circle cx="189.3" cy="516.3" r="228.5" style="fill:#4d3f94"/><circle cx="188" cy="519.9" r="228.5" style="fill:#4e4095"/><circle cx="186.7" cy="523.6" r="228.5" style="fill:#4f4096"/><circle cx="185.5" cy="527.3" r="228.5" style="fill:#504197"/><circle cx="184.3" cy="531" r="228.5" style="fill:#514298"/><circle cx="183.3" cy="534.7" r="228.5" style="fill:#514299"/><circle cx="182.2" cy="538.5" r="228.5" style="fill:#52439a"/><circle cx="181.3" cy="542.3" r="228.5" style="fill:#53439b"/><circle cx="180.4" cy="546.1" r="228.5" style="fill:#54449c"/><circle cx="179.6" cy="549.9" r="228.5" style="fill:#55449d"/><circle cx="178.9" cy="553.8" r="228.5" style="fill:#55459e"/><circle cx="178.3" cy="557.6" r="228.5" style="fill:#56459f"/><circle cx="177.7" cy="561.5" r="228.5" style="fill:#5746a0"/><circle cx="177.2" cy="565.4" r="228.5" style="fill:#5846a1"/><circle cx="176.8" cy="569.2" r="228.5" style="fill:#5947a2"/><circle cx="176.5" cy="573.1" r="228.5" style="fill:#5947a3"/><circle cx="176.3" cy="577" r="228.5" style="fill:#5a48a4"/><circle cx="176.2" cy="580.9" r="228.5" style="fill:#5b48a5"/><circle cx="176.1" cy="584.7" r="228.5" style="fill:#5c49a6"/><circle cx="176.2" cy="588.6" r="228.5" style="fill:#5c49a7"/><circle cx="176.3" cy="592.4" r="228.5" style="fill:#5d4aa8"/><circle cx="176.6" cy="596.3" r="228.5" style="fill:#5e4aa9"/><circle cx="176.9" cy="600.1" r="228.5" style="fill:#5f4baa"/><circle cx="177.4" cy="603.9" r="228.5" style="fill:#604bab"/><circle cx="177.9" cy="607.7" r="228.5" style="fill:#604cac"/><circle cx="178.6" cy="611.4" r="228.5" style="fill:#614cad"/><circle cx="179.3" cy="615.1" r="228.5" style="fill:#624dae"/><circle cx="180.2" cy="618.8" r="228.5" style="fill:#634daf"/><circle cx="181.2" cy="622.5" r="228.5" style="fill:#644eb0"/><circle cx="182.2" cy="626.1" r="228.5" style="fill:#644eb1"/><circle cx="183.4" cy="629.7" r="228.5" style="fill:#654fb2"/><circle cx="184.7" cy="633.3" r="228.5" style="fill:#6650b3"/><circle cx="186.1" cy="636.8" r="228.5" style="fill:#6750b4"/><circle cx="187.7" cy="640.3" r="228.5" style="fill:#6851b5"/><circle cx="189.3" cy="643.7" r="228.5" style="fill:#6851b6"/><circle cx="191.1" cy="647.1" r="228.5" style="fill:#6952b7"/><circle cx="193" cy="650.4" r="228.5" style="fill:#6a52b8"/><circle cx="195" cy="653.6" r="228.5" style="fill:#6b53b9"/><circle cx="197.2" cy="656.9" r="228.5" style="fill:#6b53ba"/><circle cx="199.4" cy="660" r="228.5" style="fill:#6c54bb"/><circle cx="201.8" cy="663" r="228.5" style="fill:#6d54bc"/><circle cx="204.3" cy="665.9" r="228.5" style="fill:#6e55bd"/><circle cx="206.8" cy="668.7" r="228.5" style="fill:#6f55be"/><circle cx="209.5" cy="671.4" r="228.5" style="fill:#6f56bf"/><circle cx="212.3" cy="674" r="228.5" style="fill:#7056c0"/><circle cx="215.1" cy="676.6" r="228.5" style="fill:#7157c1"/><circle cx="218" cy="679" r="228.5" style="fill:#7257c2"/><circle cx="221" cy="681.3" r="228.5" style="fill:#7358c3"/><circle cx="224.1" cy="683.5" r="228.5" style="fill:#7358c4"/><circle cx="227.3" cy="685.7" r="228.5" style="fill:#7459c5"/><circle cx="230.5" cy="687.7" r="228.5" style="fill:#7559c6"/><circle cx="233.8" cy="689.6" r="228.5" style="fill:#765ac7"/><circle cx="237.2" cy="691.4" r="228.5" style="fill:#775ac8"/><circle cx="240.6" cy="693.2" r="228.5" style="fill:#775bc9"/><circle cx="244" cy="694.8" r="228.5" style="fill:#785bca"/><circle cx="247.6" cy="696.3" r="228.5" style="fill:#795ccb"/><circle cx="251.2" cy="697.7" r="228.5" style="fill:#7a5dcc"/><circle cx="254.8" cy="699" r="228.5" style="fill:#7a5dcd"/><circle cx="258.4" cy="700.2" r="228.5" style="fill:#7b5ece"/><circle cx="262.1" cy="701.3" r="228.5" style="fill:#7c5ecf"/><circle cx="265.9" cy="702.3" r="228.5" style="fill:#7d5fd0"/><circle cx="269.6" cy="703.2" r="228.5" style="fill:#7e5fd1"/><circle cx="273.4" cy="704" r="228.5" style="fill:#7e60d2"/><circle cx="277.3" cy="704.7" r="228.5" style="fill:#7f60d3"/><circle cx="281.1" cy="705.3" r="228.5" style="fill:#8061d4"/><circle cx="284.9" cy="705.8" r="228.5" style="fill:#8161d5"/><circle cx="288.8" cy="706.1" r="228.5" style="fill:#8262d6"/><circle cx="292.7" cy="706.4" r="228.5" style="fill:#8262d7"/><circle cx="296.6" cy="706.5" r="228.5" style="fill:#8363d8"/><circle cx="300.5" cy="706.6" r="228.5" style="fill:#8463d9"/><circle cx="304.4" cy="706.5" r="228.5" style="fill:#8564da"/><circle cx="308.2" cy="706.4" r="228.5" style="fill:#8664db"/><circle cx="312.1" cy="706.1" r="228.5" style="fill:#8665dc"/><circle cx="316" cy="705.7" r="228.5" style="fill:#8765dd"/><circle cx="319.8" cy="705.2" r="228.5" style="fill:#8866de"/><circle cx="323.7" cy="704.6" r="228.5" style="fill:#8966df"/><circle cx="327.5" cy="703.9" r="228.5" style="fill:#8a67e0"/><circle cx="331.3" cy="703.1" r="228.5" style="fill:#8a67e1"/><circle cx="335" cy="702.1" r="228.5" style="fill:#8b68e2"/><circle cx="338.7" cy="701.1" r="228.5" style="fill:#8c68e3"/><circle cx="342.4" cy="699.9" r="228.5" style="fill:#8d69e4"/><circle cx="346.1" cy="698.7" r="228.5" style="fill:#8d69e5"/><circle cx="349.7" cy="697.4" r="228.5" style="fill:#8e6ae6"/><circle cx="353.2" cy="696" r="228.5" style="fill:#8f6be7"/><circle cx="356.7" cy="694.5" r="228.5" style="fill:#906be8"/><circle cx="360.2" cy="692.9" r="228.5" style="fill:#916ce9"/><circle cx="363.6" cy="691.2" r="228.5" style="fill:#916cea"/><circle cx="367" cy="689.4" r="228.5" style="fill:#926deb"/><circle cx="370.4" cy="687.6" r="228.5" style="fill:#936dec"/><circle cx="373.7" cy="685.7" r="228.5" style="fill:#946eed"/><circle cx="376.9" cy="683.7" r="228.5" style="fill:#956eee"/><circle cx="380.1" cy="681.6" r="228.5" style="fill:#956fef"/><circle cx="383.3" cy="679.5" r="228.5" style="fill:#966ff0"/><circle cx="386.4" cy="677.3" r="228.5" style="fill:#9770f1"/><circle cx="389.5" cy="675" r="228.5" style="fill:#9870f2"/><circle cx="392.5" cy="672.6" r="228.5" style="fill:#9971f3"/><circle cx="395.5" cy="670.2" r="228.5" style="fill:#9971f4"/><circle cx="398.4" cy="667.7" r="228.5" style="fill:#9a72f5"/><circle cx="401.3" cy="665.2" r="228.5" style="fill:#9b72f6"/><circle cx="404.2" cy="662.6" r="228.5" style="fill:#9c73f7"/><circle cx="406.9" cy="659.9" r="228.5" style="fill:#9c73f8"/><circle cx="409.7" cy="657.2" r="228.5" style="fill:#9d74f9"/><circle cx="412.3" cy="654.4" r="228.5" style="fill:#9e74fa"/><circle cx="415" cy="651.6" r="228.5" style="fill:#9f75fb"/><circle cx="417.5" cy="648.7" r="228.5" style="fill:#a075fc"/><circle cx="420.1" cy="645.7" r="228.5" style="fill:#a076fd"/><circle cx="422.5" cy="642.8" r="228.5" style="fill:#a176fe"/><circle cx="425.1" cy="639.5" r="228.5" style="fill:#a277ff"/><circle cx="430.4" cy="632.4" r="228.5" style="fill:#a278ff"/><circle cx="435.4" cy="624.9" r="228.5" style="fill:#a379ff"/><circle cx="440.2" cy="617.2" r="228.5" style="fill:#a37aff"/><circle cx="444.7" cy="609.3" r="228.5" style="fill:#a37bff"/><circle cx="448.8" cy="601.3" r="228.5" style="fill:#a47cff"/><circle cx="452.6" cy="593.1" r="228.5" style="fill:#a47dff"/><circle cx="456.1" cy="584.8" r="228.5" style="fill:#a47eff"/><circle cx="459.2" cy="576.3" r="228.5" style="fill:#a57fff"/><circle cx="462.1" cy="567.8" r="228.5" style="fill:#a580ff"/><circle cx="464.6" cy="559.2" r="228.5" style="fill:#a581ff"/><circle cx="466.9" cy="550.6" r="228.5" style="fill:#a682ff"/><circle cx="468.9" cy="541.8" r="228.5" style="fill:#a683ff"/><circle cx="470.7" cy="533" r="228.5" style="fill:#a684ff"/><circle cx="472.3" cy="524.2" r="228.5" style="fill:#a785ff"/><circle cx="473.6" cy="515.2" r="228.5" style="fill:#a786ff"/><circle cx="474.6" cy="506.3" r="228.5" style="fill:#a787ff"/><circle cx="475.5" cy="497.3" r="228.5" style="fill:#a888ff"/><circle cx="476.2" cy="488.3" r="228.5" style="fill:#a889ff"/><circle cx="476.7" cy="479.3" r="228.5" style="fill:#a88aff"/><circle cx="476.9" cy="470.2" r="228.5" style="fill:#a98bff"/><circle cx="477.1" cy="461.2" r="228.5" style="fill:#a98cff"/><circle cx="477" cy="452.1" r="228.5" style="fill:#a98dff"/><circle cx="476.9" cy="443.1" r="228.5" style="fill:#aa8eff"/><circle cx="476.5" cy="434.1" r="228.5" style="fill:#aa8fff"/><circle cx="476.1" cy="425.1" r="228.5" style="fill:#aa90ff"/><circle cx="475.5" cy="416" r="228.5" style="fill:#ab91ff"/><circle cx="474.9" cy="407" r="228.5" style="fill:#ab92ff"/><circle cx="474.3" cy="397.9" r="228.5" style="fill:#ab93ff"/><circle cx="473.6" cy="388.8" r="228.5" style="fill:#ac94ff"/><circle cx="473" cy="379.8" r="228.5" style="fill:#ac95ff"/><circle cx="472.5" cy="370.7" r="228.5" style="fill:#ac96ff"/><circle cx="472" cy="361.6" r="228.5" style="fill:#ad97ff"/><circle cx="471.6" cy="352.6" r="228.5" style="fill:#ad98ff"/><circle cx="471.4" cy="343.6" r="228.5" style="fill:#ad99ff"/><circle cx="471.3" cy="334.5" r="228.5" style="fill:#ae9aff"/><circle cx="471.4" cy="325.6" r="228.5" style="fill:#ae9bff"/><circle cx="471.8" cy="316.6" r="228.5" style="fill:#ae9cff"/><circle cx="472.4" cy="307.7" r="228.5" style="fill:#af9dff"/><circle cx="473.3" cy="298.8" r="228.5" style="fill:#af9eff"/><circle cx="474.4" cy="290" r="228.5" style="fill:#af9fff"/><circle cx="476" cy="281.2" r="228.5" style="fill:#b09fff"/><circle cx="477.9" cy="272.5" r="228.5" style="fill:#b0a0ff"/><circle cx="480.2" cy="263.8" r="228.5" style="fill:#b0a1ff"/><circle cx="482.9" cy="255.3" r="228.5" style="fill:#b1a2ff"/><circle cx="486.1" cy="246.8" r="228.5" style="fill:#b1a3ff"/><circle cx="489.7" cy="238.6" r="228.5" style="fill:#b1a4ff"/><circle cx="493.7" cy="230.6" r="228.5" style="fill:#b2a5ff"/><circle cx="498.1" cy="222.9" r="228.5" style="fill:#b2a6ff"/><circle cx="502.9" cy="215.3" r="228.5" style="fill:#b2a7ff"/><circle cx="508.1" cy="208" r="228.5" style="fill:#b3a8ff"/><circle cx="513.6" cy="201" r="228.5" style="fill:#b3a9ff"/><circle cx="519.4" cy="194.2" r="228.5" style="fill:#b3aaff"/><circle cx="525.5" cy="187.6" r="228.5" style="fill:#b4abff"/><circle cx="532" cy="181.4" r="228.5" style="fill:#b4acff"/><circle cx="538.7" cy="175.4" r="228.5" style="fill:#b4adff"/><circle cx="545.6" cy="169.7" r="228.5" style="fill:#b5aeff"/><circle cx="552.9" cy="164.3" r="228.5" style="fill:#b5afff"/><circle cx="560.3" cy="159.2" r="228.5" style="fill:#b5b0ff"/><circle cx="568" cy="154.4" r="228.5" style="fill:#b6b1ff"/><circle cx="575.9" cy="150" r="228.5" style="fill:#b6b2ff"/><circle cx="583.9" cy="145.9" r="228.5" style="fill:#b6b3ff"/><circle cx="592.2" cy="142.1" r="228.5" style="fill:#b7b4ff"/><circle cx="600.6" cy="138.7" r="228.5" style="fill:#b7b5ff"/><circle cx="609.1" cy="135.6" r="228.5" style="fill:#b7b6ff"/><circle cx="617.7" cy="132.9" r="228.5" style="fill:#b8b7ff"/><circle cx="626.5" cy="130.6" r="228.5" style="fill:#b8b8ff"/><circle cx="635.3" cy="128.6" r="228.5" style="fill:#b8b9ff"/><circle cx="644.2" cy="127.1" r="228.5" style="fill:#b9baff"/><circle cx="653.2" cy="125.9" r="228.5" style="fill:#b9bbff"/><circle cx="662.2" cy="125.2" r="228.5" style="fill:#b9bcff"/><circle cx="671.2" cy="124.8" r="228.5" style="fill:#babdff"/><circle cx="680.3" cy="124.9" r="228.5" style="fill:#babeff"/><circle cx="689.3" cy="125.4" r="228.5" style="fill:#babfff"/><circle cx="698.2" cy="126.3" r="228.5" style="fill:#bbc0ff"/><circle cx="707.1" cy="127.5" r="228.5" style="fill:#bbc1ff"/><circle cx="715.9" cy="129.1" r="228.5" style="fill:#bbc2ff"/><circle cx="724.6" cy="131.1" r="228.5" style="fill:#bcc3ff"/><circle cx="733.3" cy="133.4" r="228.5" style="fill:#bcc4ff"/><circle cx="741.8" cy="136" r="228.5" style="fill:#bcc5ff"/><circle cx="750.3" cy="139" r="228.5" class="cls-257"/><circle cx="759" cy="142.5" r="228.5" class="cls-242"/><circle cx="777.9" cy="151.5" r="228.5" class="cls-257"/><circle cx="796.5" cy="162.3" r="228.5" style="fill:#bdc5ff"/><circle cx="814.1" cy="174.7" r="228.5" style="fill:#bdc4ff"/><circle cx="830.6" cy="188.5" r="228.5" style="fill:#bdc3ff"/><circle cx="845.9" cy="203.7" r="228.5" style="fill:#bdc2ff"/><circle cx="860" cy="220.1" r="228.5" style="fill:#bec1ff"/><circle cx="872.6" cy="237.5" r="228.5" style="fill:#bec0ff"/><circle cx="883.7" cy="256" r="228.5" style="fill:#bebfff"/><circle cx="893.2" cy="275.3" r="228.5" style="fill:#bebeff"/><circle cx="901" cy="295.1" r="228.5" style="fill:#bebdff"/><circle cx="907.4" cy="315.5" r="228.5" style="fill:#bebcff"/><circle cx="912.2" cy="336.4" r="228.5" style="fill:#bebbff"/><circle cx="915.6" cy="357.5" r="228.5" style="fill:#bebaff"/><circle cx="917.5" cy="378.9" r="228.5" style="fill:#beb9ff"/><circle cx="918" cy="400.4" r="228.5" style="fill:#beb8ff"/><circle cx="917" cy="421.9" r="228.5" style="fill:#beb7ff"/><circle cx="914.7" cy="443.3" r="228.5" style="fill:#bfb7ff"/><circle cx="911" cy="464.6" r="228.5" style="fill:#bfb6ff"/><circle cx="906" cy="485.5" r="228.5" style="fill:#bfb5ff"/><circle cx="899.7" cy="506.1" r="228.5" style="fill:#bfb4ff"/><circle cx="892.1" cy="526.3" r="228.5" style="fill:#bfb3ff"/><circle cx="883" cy="546" r="228.5" style="fill:#bfb2ff"/><circle cx="872.7" cy="565.1" r="228.5" style="fill:#bfb1ff"/><circle cx="861.1" cy="583.4" r="228.5" style="fill:#bfb0ff"/><circle cx="848.3" cy="600.9" r="228.5" style="fill:#bfafff"/><circle cx="834.4" cy="617.5" r="228.5" style="fill:#bfaeff"/><circle cx="819.3" cy="633" r="228.5" style="fill:#bfadff"/><circle cx="803.3" cy="647.2" r="228.5" style="fill:#bfacff"/><circle cx="786.3" cy="660.1" r="228.5" style="fill:#c0abff"/><circle cx="768.4" cy="671.5" r="228.5" style="fill:#c0aaff"/><circle cx="749.6" cy="681.4" r="228.5" style="fill:#c0a9ff"/><circle cx="730" cy="689.5" r="228.5" style="fill:#c0a8ff"/><circle cx="709.8" cy="695.8" r="228.5" style="fill:#c0a7ff"/><circle cx="688.8" cy="700.2" r="228.5" style="fill:#c0a6ff"/></g></svg>