<svg xmlns="http://www.w3.org/2000/svg" id="Layer_3" data-name="Layer 3" viewBox="0 0 720 720" xmlns:xlink="http://www.w3.org/1999/xlink"><defs><clipPath id="clippath"><path d="M0 0h720v720H0z" style="fill:none" transform="rotate(180 360 360)"/></clipPath><style>.cls-35{fill:#dfd2f4}.cls-48{fill:#fefee8}</style></defs><g style="clip-path:url(#clippath)"><circle cx="573.8" cy="24.9" r="263.3" style="fill:#bdc7ff"/><circle cx="585.7" cy="38.7" r="263.3" style="fill:#bdc6ff"/><circle cx="596.6" cy="60.1" r="263.3" style="fill:#bdc5ff"/><circle cx="606.6" cy="88" r="263.3" style="fill:#bdc4ff"/><circle cx="615.6" cy="121.4" r="263.3" style="fill:#bdc3ff"/><circle cx="623.5" cy="159.2" r="263.3" style="fill:#bdc2ff"/><circle cx="630.3" cy="200.3" r="263.3" style="fill:#bec1ff"/><circle cx="636" cy="243.8" r="263.3" style="fill:#bec0ff"/><circle cx="640.5" cy="288.5" r="263.3" style="fill:#bebfff"/><circle cx="643.8" cy="333.4" r="263.3" style="fill:#bebeff"/><circle cx="645.8" cy="377.4" r="263.3" style="fill:#bebdff"/><circle cx="646.5" cy="419.5" r="263.3" style="fill:#bebcff"/><circle cx="645.8" cy="458.7" r="263.3" style="fill:#bebbff"/><circle cx="643.8" cy="493.8" r="263.3" style="fill:#bebaff"/><circle cx="640.3" cy="523.9" r="263.3" style="fill:#beb9ff"/><circle cx="635.3" cy="547.8" r="263.3" style="fill:#beb8ff"/><circle cx="627.4" cy="567" r="263.3" style="fill:#beb7ff"/><circle cx="608.5" cy="595.9" r="263.3" style="fill:#bfb7ff"/><circle cx="585.2" cy="621.3" r="263.3" style="fill:#bfb6ff"/><circle cx="558.3" cy="643" r="263.3" style="fill:#bfb5ff"/><circle cx="528.4" cy="660.9" r="263.3" style="fill:#bfb4ff"/><circle cx="496.2" cy="674.7" r="263.3" style="fill:#bfb3ff"/><circle cx="462.5" cy="684.2" r="263.3" style="fill:#bfb2ff"/><circle cx="428" cy="689.4" r="263.3" style="fill:#bfb1ff"/><circle cx="393.1" cy="690.1" r="263.3" style="fill:#bfb0ff"/><circle cx="358.5" cy="686.5" r="263.3" style="fill:#bfafff"/><circle cx="324.6" cy="678.4" r="263.3" style="fill:#bfaeff"/><circle cx="292.2" cy="666" r="263.3" style="fill:#bfadff"/><circle cx="262" cy="649.1" r="263.3" style="fill:#bfacff"/><circle cx="234.6" cy="627.7" r="263.3" style="fill:#c0abff"/><circle cx="211" cy="602" r="263.3" style="fill:#c0aaff"/><circle cx="191.8" cy="572.9" r="263.3" style="fill:#c0a9ff"/><circle cx="177.7" cy="541.1" r="263.3" style="fill:#c0a8ff"/><circle cx="169.3" cy="507.6" r="263.3" style="fill:#c0a7ff"/><circle cx="167.3" cy="473" r="263.3" style="fill:#c0a6ff"/><circle cx="167.8" cy="464.1" r="263.3" style="fill:#c1a7ff"/><circle cx="168.8" cy="455.3" r="263.3" style="fill:#c1a8fe"/><circle cx="170.1" cy="446.5" r="263.3" style="fill:#c2a9fe"/><circle cx="171.8" cy="437.9" r="263.3" style="fill:#c3aafe"/><circle cx="173.9" cy="429.3" r="263.3" style="fill:#c4abfe"/><circle cx="176.3" cy="420.7" r="263.3" style="fill:#c4acfd"/><circle cx="179" cy="412.3" r="263.3" style="fill:#c5adfd"/><circle cx="182" cy="403.9" r="263.3" style="fill:#c6aefd"/><circle cx="185.3" cy="395.6" r="263.3" style="fill:#c6affd"/><circle cx="188.8" cy="387.4" r="263.3" style="fill:#c7b0fc"/><circle cx="192.5" cy="379.2" r="263.3" style="fill:#c8b1fc"/><circle cx="196.4" cy="371.2" r="263.3" style="fill:#c8b2fc"/><circle cx="200.6" cy="363.2" r="263.3" style="fill:#c9b3fc"/><circle cx="204.8" cy="355.3" r="263.3" style="fill:#cab4fb"/><circle cx="209.3" cy="347.4" r="263.3" style="fill:#cbb5fb"/><circle cx="213.8" cy="339.7" r="263.3" style="fill:#cbb6fb"/><circle cx="218.5" cy="332" r="263.3" style="fill:#ccb7fb"/><circle cx="223.3" cy="324.4" r="263.3" style="fill:#cdb8fa"/><circle cx="228.1" cy="316.9" r="263.3" style="fill:#cdb9fa"/><circle cx="232.9" cy="309.4" r="263.3" style="fill:#cebafa"/><circle cx="237.9" cy="301.9" r="263.3" style="fill:#cfbbfa"/><circle cx="242.8" cy="294.4" r="263.3" style="fill:#cfbcf9"/><circle cx="247.8" cy="287" r="263.3" style="fill:#d0bdf9"/><circle cx="252.7" cy="279.5" r="263.3" style="fill:#d1bef9"/><circle cx="257.6" cy="272.1" r="263.3" style="fill:#d2bff9"/><circle cx="262.5" cy="264.5" r="263.3" style="fill:#d2c0f8"/><circle cx="267.3" cy="257" r="263.3" style="fill:#d3c1f8"/><circle cx="272.1" cy="249.4" r="263.3" style="fill:#d4c2f8"/><circle cx="276.7" cy="241.8" r="263.3" style="fill:#d4c3f8"/><circle cx="281.3" cy="234.2" r="263.3" style="fill:#d5c4f7"/><circle cx="285.7" cy="226.4" r="263.3" style="fill:#d6c5f7"/><circle cx="289.9" cy="218.6" r="263.3" style="fill:#d6c6f7"/><circle cx="294" cy="210.7" r="263.3" style="fill:#d7c7f7"/><circle cx="297.9" cy="202.7" r="263.3" style="fill:#d8c8f6"/><circle cx="301.6" cy="194.6" r="263.3" style="fill:#d9c9f6"/><circle cx="305.1" cy="186.5" r="263.3" style="fill:#d9caf6"/><circle cx="308.4" cy="178.2" r="263.3" style="fill:#dacbf6"/><circle cx="311.4" cy="169.7" r="263.3" style="fill:#dbccf5"/><circle cx="314.1" cy="161.1" r="263.3" style="fill:#dbcdf5"/><circle cx="316.4" cy="152.4" r="263.3" style="fill:#dccef5"/><circle cx="318.5" cy="143.6" r="263.3" style="fill:#ddcff5"/><circle cx="320.1" cy="134.7" r="263.3" style="fill:#ddd0f4"/><circle cx="321.4" cy="125.7" r="263.3" style="fill:#ded1f4"/><circle cx="322.4" cy="116.7" r="263.3" class="cls-35"/><circle cx="322.9" cy="107.7" r="263.3" class="cls-35"/><circle cx="322.9" cy="98.8" r="263.3" style="fill:#e0d3f3"/><circle cx="322.6" cy="89.8" r="263.3" style="fill:#e1d4f3"/><circle cx="321.8" cy="81" r="263.3" style="fill:#e2d5f3"/><circle cx="320.5" cy="72.3" r="263.3" style="fill:#e2d6f2"/><circle cx="318.8" cy="63.6" r="263.3" style="fill:#e3d7f2"/><circle cx="316.5" cy="55.1" r="263.3" style="fill:#e4d8f2"/><circle cx="313.7" cy="46.8" r="263.3" style="fill:#e4d9f2"/><circle cx="310.4" cy="38.7" r="263.3" style="fill:#e5daf1"/><circle cx="306.6" cy="30.8" r="263.3" style="fill:#e6dbf1"/><circle cx="302.1" cy="23.1" r="263.3" style="fill:#e6dcf1"/><circle cx="297.1" cy="15.7" r="263.3" style="fill:#e7ddf1"/><circle cx="291.6" cy="8.7" r="263.3" style="fill:#e8def0"/><circle cx="285.6" cy="2.2" r="263.3" style="fill:#e9dff0"/><circle cx="279.2" cy="-3.8" r="263.3" style="fill:#e9e0f0"/><circle cx="272.4" cy="-9.4" r="263.3" style="fill:#eae1f0"/><circle cx="265.2" cy="-14.5" r="263.3" style="fill:#ebe2ef"/><circle cx="257.7" cy="-19.1" r="263.3" style="fill:#ebe3ef"/><circle cx="249.9" cy="-23.3" r="263.3" style="fill:#ece4ef"/><circle cx="241.8" cy="-27" r="263.3" style="fill:#ede5ef"/><circle cx="233.5" cy="-30.3" r="263.3" style="fill:#ede6ee"/><circle cx="225" cy="-33" r="263.3" style="fill:#eee7ee"/><circle cx="216.3" cy="-35.3" r="263.3" style="fill:#efe8ee"/><circle cx="207.5" cy="-37" r="263.3" style="fill:#f0e9ee"/><circle cx="198.6" cy="-38.3" r="263.3" style="fill:#f0eaed"/><circle cx="189.7" cy="-39.1" r="263.3" style="fill:#f1ebed"/><circle cx="180.6" cy="-39.4" r="263.3" style="fill:#f2eced"/><circle cx="171.6" cy="-39.2" r="263.3" style="fill:#f2eded"/><circle cx="162.7" cy="-38.5" r="263.3" style="fill:#f3eeec"/><circle cx="153.8" cy="-37.2" r="263.3" style="fill:#f4efec"/><circle cx="144.9" cy="-35.5" r="263.3" style="fill:#f4f0ec"/><circle cx="136.3" cy="-33.2" r="263.3" style="fill:#f5f1ec"/><circle cx="127.8" cy="-30.5" r="263.3" style="fill:#f6f2eb"/><circle cx="119.5" cy="-27.4" r="263.3" style="fill:#f7f3eb"/><circle cx="111.3" cy="-23.8" r="263.3" style="fill:#f7f4eb"/><circle cx="103.4" cy="-19.8" r="263.3" style="fill:#f8f5eb"/><circle cx="95.7" cy="-15.5" r="263.3" style="fill:#f9f6ea"/><circle cx="88.2" cy="-10.8" r="263.3" style="fill:#f9f7ea"/><circle cx="80.9" cy="-5.8" r="263.3" style="fill:#faf8ea"/><circle cx="73.8" cy="-.4" r="263.3" style="fill:#fbf9ea"/><circle cx="67" cy="5.2" r="263.3" style="fill:#fbfae9"/><circle cx="60.4" cy="11.2" r="263.3" style="fill:#fcfbe9"/><circle cx="54" cy="17.4" r="263.3" style="fill:#fdfce9"/><circle cx="47.8" cy="23.9" r="263.3" style="fill:#fefde9"/><circle cx="41.9" cy="30.7" r="263.3" class="cls-48"/><circle cx="36" cy="38" r="263.3" style="fill:#ffffe8"/><circle cx="28.8" cy="47.9" r="263.3" class="cls-48"/><circle cx="21.8" cy="58.4" r="263.3" style="fill:#fdfde9"/><circle cx="15.4" cy="69.3" r="263.3" style="fill:#fcfce9"/><circle cx="9.5" cy="80.5" r="263.3" style="fill:#fbfce9"/><circle cx="4.2" cy="91.9" r="263.3" style="fill:#fafbea"/><circle cx="-.5" cy="103.5" r="263.3" style="fill:#f9faea"/><circle cx="-4.8" cy="115.2" r="263.3" style="fill:#f8f9ea"/><circle cx="-8.5" cy="127.2" r="263.3" style="fill:#f7f8eb"/><circle cx="-11.8" cy="139.2" r="263.3" style="fill:#f6f7eb"/><circle cx="-14.6" cy="151.4" r="263.3" style="fill:#f5f7eb"/><circle cx="-17.1" cy="163.7" r="263.3" style="fill:#f4f6ec"/><circle cx="-19.1" cy="176" r="263.3" style="fill:#f3f5ec"/><circle cx="-20.7" cy="188.5" r="263.3" style="fill:#f2f4ec"/><circle cx="-21.9" cy="201" r="263.3" style="fill:#f1f3ed"/><circle cx="-22.9" cy="213.6" r="263.3" style="fill:#f0f2ed"/><circle cx="-23.5" cy="226.2" r="263.3" style="fill:#eff2ed"/><circle cx="-23.8" cy="238.8" r="263.3" style="fill:#eef1ee"/><circle cx="-23.8" cy="251.3" r="263.3" style="fill:#edf0ee"/><circle cx="-23.6" cy="263.9" r="263.3" style="fill:#ecefef"/><circle cx="-23.1" cy="276.5" r="263.3" style="fill:#ebeeef"/><circle cx="-22.4" cy="289.1" r="263.3" style="fill:#eaedef"/><circle cx="-21.6" cy="301.7" r="263.3" style="fill:#e9edf0"/><circle cx="-20.7" cy="314.3" r="263.3" style="fill:#e8ecf0"/><circle cx="-19.9" cy="326.9" r="263.3" style="fill:#e7ebf0"/><circle cx="-19" cy="339.6" r="263.3" style="fill:#e6eaf1"/><circle cx="-18.2" cy="352.2" r="263.3" style="fill:#e5e9f1"/><circle cx="-17.6" cy="364.8" r="263.3" style="fill:#e4e8f1"/><circle cx="-17.3" cy="377.4" r="263.3" style="fill:#e3e8f2"/><circle cx="-17.1" cy="389.9" r="263.3" style="fill:#e2e7f2"/><circle cx="-17.4" cy="402.5" r="263.3" style="fill:#e1e6f2"/><circle cx="-18" cy="414.9" r="263.3" style="fill:#e0e5f3"/><circle cx="-19.1" cy="427.3" r="263.3" style="fill:#dfe4f3"/><circle cx="-20.6" cy="439.6" r="263.3" style="fill:#dee3f3"/><circle cx="-22.8" cy="451.8" r="263.3" style="fill:#dee3f4"/><circle cx="-25.5" cy="464" r="263.3" style="fill:#dde2f4"/><circle cx="-29" cy="476" r="263.3" style="fill:#dce1f4"/><circle cx="-33.2" cy="487.8" r="263.3" style="fill:#dbe0f5"/><circle cx="-38.1" cy="499.3" r="263.3" style="fill:#dadff5"/><circle cx="-43.7" cy="510.4" r="263.3" style="fill:#d9def5"/><circle cx="-50" cy="521.2" r="263.3" style="fill:#d8def6"/><circle cx="-56.9" cy="531.5" r="263.3" style="fill:#d7ddf6"/><circle cx="-64.4" cy="541.5" r="263.3" style="fill:#d6dcf6"/><circle cx="-72.5" cy="551" r="263.3" style="fill:#d5dbf7"/><circle cx="-81" cy="560" r="263.3" style="fill:#d4daf7"/><circle cx="-90.1" cy="568.7" r="263.3" style="fill:#d3d9f7"/><circle cx="-99.7" cy="576.8" r="263.3" style="fill:#d2d9f8"/><circle cx="-109.6" cy="584.4" r="263.3" style="fill:#d1d8f8"/><circle cx="-120" cy="591.5" r="263.3" style="fill:#d0d7f8"/><circle cx="-130.7" cy="598.1" r="263.3" style="fill:#cfd6f9"/><circle cx="-141.8" cy="604.1" r="263.3" style="fill:#ced5f9"/><circle cx="-153.2" cy="609.6" r="263.3" style="fill:#cdd4fa"/><circle cx="-164.8" cy="614.5" r="263.3" style="fill:#ccd4fa"/><circle cx="-176.7" cy="618.8" r="263.3" style="fill:#cbd3fa"/><circle cx="-188.7" cy="622.5" r="263.3" style="fill:#cad2fb"/><circle cx="-201" cy="625.5" r="263.3" style="fill:#c9d1fb"/><circle cx="-213.3" cy="627.9" r="263.3" style="fill:#c8d0fb"/><circle cx="-225.8" cy="629.6" r="263.3" style="fill:#c7cffc"/><circle cx="-238.4" cy="630.7" r="263.3" style="fill:#c6cffc"/><circle cx="-250.9" cy="631" r="263.3" style="fill:#c5cefc"/></g></svg>